<svg xmlns="http://www.w3.org/2000/svg" viewBox="0 0 960 680">
  <defs>
    <pattern id="grid" width="40" height="40" patternUnits="userSpaceOnUse">
      <path d="M 40 0 L 0 0 0 40" fill="none" stroke="#1e293b" stroke-width="0.5"/>
    </pattern>
    <marker id="arr" markerWidth="6" markerHeight="6" refX="6" refY="3" orient="auto">
      <polygon points="0 0, 6 3, 0 6" fill="#475569"/>
    </marker>
    <marker id="arr-dash" markerWidth="6" markerHeight="6" refX="6" refY="3" orient="auto">
      <polygon points="0 0, 6 3, 0 6" fill="#64748b"/>
    </marker>
  </defs>

  <style>
    @import url('https://fonts.googleapis.com/css2?family=JetBrains+Mono:wght@400;500;600;700&amp;display=swap');
    text { font-family: 'JetBrains Mono', 'Noto Sans SC', 'PingFang SC', sans-serif; }
  </style>

  <rect width="100%" height="100%" fill="#0f172a"/>
  <rect width="100%" height="100%" fill="url(#grid)"/>

  <text x="30" y="38" fill="white" font-size="16" font-weight="700">CHANG_AI_TEAM · 组织架构 v0.3</text>
  <text x="30" y="56" fill="#64748b" font-size="10">Organization Chart — CTO Sub-tree Expanded (PMO + 4 Experts)</text>

  <!-- Level label: CEO -->
  <rect x="90" y="70" width="60" height="18" rx="3" fill="#fbbf24" fill-opacity="0.15"/>
  <text x="120" y="83" fill="#fbbf24" font-size="7" font-weight="600" text-anchor="middle">CEO</text>

  <!-- ===== CEO ===== -->
  <rect x="340" y="70" width="280" height="60" rx="8" fill="#0f172a"/>
  <rect x="340" y="70" width="280" height="60" rx="8" fill="rgba(251,191,36,0.25)" stroke="#fbbf24" stroke-width="2"/>
  <text x="480" y="96" fill="white" font-size="13" font-weight="700" text-anchor="middle">🤖 CEO · Mike</text>
  <text x="480" y="114" fill="#fbbf24" font-size="9" text-anchor="middle">Final Decision Maker</text>

  <!-- Level label: VP -->
  <rect x="90" y="148" width="60" height="18" rx="3" fill="#fbbf24" fill-opacity="0.15"/>
  <text x="120" y="161" fill="#fbbf24" font-size="7" font-weight="600" text-anchor="middle">VP</text>

  <!-- CEO → VP lines -->
  <line x1="480" y1="130" x2="480" y2="142" stroke="#475569" stroke-width="1.5"/>
  <line x1="150" y1="142" x2="810" y2="142" stroke="#475569" stroke-width="1"/>
  <line x1="150" y1="142" x2="150" y2="158" stroke="#475569" stroke-width="1.5" marker-end="url(#arr)"/>
  <line x1="370" y1="142" x2="370" y2="158" stroke="#475569" stroke-width="1.5" marker-end="url(#arr)"/>
  <line x1="590" y1="142" x2="590" y2="158" stroke="#475569" stroke-width="1.5" marker-end="url(#arr)"/>
  <line x1="810" y1="142" x2="810" y2="158" stroke="#475569" stroke-width="1.5" marker-end="url(#arr)"/>

  <!-- ===== CFO ===== -->
  <rect x="60" y="163" width="180" height="55" rx="8" fill="#0f172a"/>
  <rect x="60" y="163" width="180" height="55" rx="8" fill="rgba(136,19,55,0.2)" stroke="#fb7185" stroke-width="1.2"/>
  <text x="150" y="188" fill="white" font-size="11" font-weight="600" text-anchor="middle">💰 CFO</text>
  <text x="150" y="206" fill="#94a3b8" font-size="8" text-anchor="middle">成本 &amp; 财务决策</text>

  <!-- ===== COO ===== -->
  <rect x="280" y="163" width="180" height="55" rx="8" fill="#0f172a"/>
  <rect x="280" y="163" width="180" height="55" rx="8" fill="rgba(59,130,246,0.2)" stroke="#60a5fa" stroke-width="1.2"/>
  <text x="370" y="188" fill="white" font-size="11" font-weight="600" text-anchor="middle">📋 COO</text>
  <text x="370" y="206" fill="#94a3b8" font-size="8" text-anchor="middle">运营 &amp; 流程</text>

  <!-- ===== CPO ===== -->
  <rect x="500" y="163" width="180" height="55" rx="8" fill="#0f172a"/>
  <rect x="500" y="163" width="180" height="55" rx="8" fill="rgba(52,211,153,0.2)" stroke="#34d399" stroke-width="1.2"/>
  <text x="590" y="188" fill="white" font-size="11" font-weight="600" text-anchor="middle">🎨 CPO</text>
  <text x="590" y="206" fill="#94a3b8" font-size="8" text-anchor="middle">产品 &amp; 用户体验</text>

  <!-- ===== CTO (highlighted) ===== -->
  <rect x="720" y="163" width="180" height="55" rx="8" fill="#0f172a"/>
  <rect x="720" y="163" width="180" height="55" rx="8" fill="rgba(34,211,238,0.2)" stroke="#22d3ee" stroke-width="2"/>
  <text x="810" y="188" fill="white" font-size="11" font-weight="700" text-anchor="middle">⚙️ CTO</text>
  <text x="810" y="206" fill="#22d3ee" font-size="8" text-anchor="middle">技术决策</text>

  <!-- ===== CTO tree expands below ===== -->
  <!-- Level label: PMO (横线) -->
  <rect x="90" y="250" width="120" height="18" rx="3" fill="#f59e0b" fill-opacity="0.15"/>
  <text x="150" y="263" fill="#f59e0b" font-size="7" font-weight="600" text-anchor="middle">PMO · sessions_send</text>

  <!-- CTO → PMO (horizontal, sessions_send line) -->
  <line x1="810" y1="218" x2="810" y2="240" stroke="#475569" stroke-width="1.5"/>
  <line x1="150" y1="240" x2="810" y2="240" stroke="#f59e0b" stroke-width="1.2" stroke-dasharray="6,4"/>
  <line x1="150" y1="240" x2="150" y2="256" stroke="#f59e0b" stroke-width="1.5" marker-end="url(#arr)"/>
  <text x="480" y="236" fill="#f59e0b" font-size="7" text-anchor="middle">sessions_send</text>

  <!-- ===== PMO ===== -->
  <rect x="60" y="262" width="180" height="50" rx="8" fill="#0f172a"/>
  <rect x="60" y="262" width="180" height="50" rx="8" fill="rgba(245,158,11,0.2)" stroke="#f59e0b" stroke-width="1.5"/>
  <text x="150" y="284" fill="white" font-size="11" font-weight="600" text-anchor="middle">📊 PMO</text>
  <text x="150" y="300" fill="#94a3b8" font-size="8" text-anchor="middle">项目管理 · Wiki 发布</text>

  <!-- Level label: Expert -->
  <rect x="90" y="340" width="120" height="18" rx="3" fill="#a78bfa" fill-opacity="0.15"/>
  <text x="150" y="353" fill="#a78bfa" font-size="7" font-weight="600" text-anchor="middle">专家层 · Expert</text>

  <!-- CTO → Expert (down from CTO, sessions_spawn) -->
  <line x1="810" y1="218" x2="810" y2="320" stroke="#475569" stroke-width="1.5"/>
  <line x1="600" y1="320" x2="915" y2="320" stroke="#475569" stroke-width="1"/>
  <line x1="600" y1="320" x2="600" y2="342" stroke="#475569" stroke-width="1.5" marker-end="url(#arr)"/>
  <line x1="705" y1="320" x2="705" y2="342" stroke="#475569" stroke-width="1.5" marker-end="url(#arr)"/>
  <line x1="810" y1="320" x2="810" y2="342" stroke="#475569" stroke-width="1.5" marker-end="url(#arr)"/>
  <line x1="915" y1="320" x2="915" y2="342" stroke="#475569" stroke-width="1.5" marker-end="url(#arr)"/>
  <text x="750" y="316" fill="#22d3ee" font-size="7" text-anchor="middle">sessions_spawn</text>

  <!-- ===== RD Expert ===== -->
  <rect x="500" y="348" width="200" height="50" rx="6" fill="#0f172a"/>
  <rect x="500" y="348" width="200" height="50" rx="6" fill="rgba(59,130,246,0.18)" stroke="#60a5fa" stroke-width="1.2"/>
  <text x="600" y="371" fill="white" font-size="10" font-weight="600" text-anchor="middle">🛠️ RD 专家</text>
  <text x="600" y="387" fill="#64748b" font-size="8" text-anchor="middle">架构 &amp; 核心系统</text>

  <!-- ===== Perf Expert ===== -->
  <rect x="605" y="348" width="200" height="50" rx="6" fill="#0f172a"/>
  <rect x="605" y="348" width="200" height="50" rx="6" fill="rgba(34,211,238,0.15)" stroke="#22d3ee" stroke-width="1.2"/>
  <text x="705" y="371" fill="white" font-size="10" font-weight="600" text-anchor="middle">⚡ 性能专家</text>
  <text x="705" y="387" fill="#64748b" font-size="8" text-anchor="middle">性能调优 &amp; 基准测试</text>

  <!-- ===== QA Expert ===== -->
  <rect x="710" y="348" width="200" height="50" rx="6" fill="#0f172a"/>
  <rect x="710" y="348" width="200" height="50" rx="6" fill="rgba(52,211,153,0.15)" stroke="#34d399" stroke-width="1.2"/>
  <text x="810" y="371" fill="white" font-size="10" font-weight="600" text-anchor="middle">✅ QA 专家</text>
  <text x="810" y="387" fill="#64748b" font-size="8" text-anchor="middle">测试策略 &amp; 质量门禁</text>

  <!-- ===== SRE Expert ===== -->
  <rect x="815" y="348" width="200" height="50" rx="6" fill="#0f172a"/>
  <rect x="815" y="348" width="200" height="50" rx="6" fill="rgba(248,113,113,0.15)" stroke="#fb7185" stroke-width="1.2"/>
  <text x="915" y="371" fill="white" font-size="10" font-weight="600" text-anchor="middle">🔧 SRE 专家</text>
  <text x="915" y="387" fill="#64748b" font-size="8" text-anchor="middle">可靠性 · 部署 · 监控</text>

  <!-- Level label: Worker -->
  <rect x="90" y="435" width="120" height="18" rx="3" fill="#64748b" fill-opacity="0.15"/>
  <text x="150" y="448" fill="#94a3b8" font-size="7" font-weight="600" text-anchor="middle">执行层 · Worker</text>

  <!-- Expert → Worker lines -->
  <path d="M 600 398 L 600 420 L 515 420 L 515 442" fill="none" stroke="#475569" stroke-width="1.2" marker-end="url(#arr)"/>
  <path d="M 705 398 L 705 420 L 625 420 L 625 442" fill="none" stroke="#475569" stroke-width="1.2" marker-end="url(#arr)"/>
  <path d="M 810 398 L 810 420 L 735 420 L 735 442" fill="none" stroke="#475569" stroke-width="1.2" marker-end="url(#arr)"/>
  <path d="M 915 398 L 915 420 L 845 420 L 845 442" fill="none" stroke="#475569" stroke-width="1.2" marker-end="url(#arr)"/>

  <!-- Worker boxes: 4 workers, lined up neatly -->
  <rect x="440" y="448" width="150" height="50" rx="6" fill="#0f172a"/>
  <rect x="440" y="448" width="150" height="50" rx="6" fill="rgba(100,116,139,0.12)" stroke="#64748b" stroke-width="1" stroke-opacity="0.6"/>
  <text x="515" y="470" fill="white" font-size="10" font-weight="500" text-anchor="middle">🛠️ rd-worker</text>
  <text x="515" y="488" fill="#64748b" font-size="7" text-anchor="middle">开发执行</text>

  <rect x="550" y="448" width="150" height="50" rx="6" fill="#0f172a"/>
  <rect x="550" y="448" width="150" height="50" rx="6" fill="rgba(100,116,139,0.12)" stroke="#64748b" stroke-width="1" stroke-opacity="0.6"/>
  <text x="625" y="470" fill="white" font-size="10" font-weight="500" text-anchor="middle">⚡ perf-worker</text>
  <text x="625" y="488" fill="#64748b" font-size="7" text-anchor="middle">性能测试执行</text>

  <rect x="660" y="448" width="150" height="50" rx="6" fill="#0f172a"/>
  <rect x="660" y="448" width="150" height="50" rx="6" fill="rgba(100,116,139,0.12)" stroke="#64748b" stroke-width="1" stroke-opacity="0.6"/>
  <text x="735" y="470" fill="white" font-size="10" font-weight="500" text-anchor="middle">✅ qa-worker</text>
  <text x="735" y="488" fill="#64748b" font-size="7" text-anchor="middle">测试 &amp; 验证</text>

  <rect x="770" y="448" width="150" height="50" rx="6" fill="#0f172a"/>
  <rect x="770" y="448" width="150" height="50" rx="6" fill="rgba(100,116,139,0.12)" stroke="#64748b" stroke-width="1" stroke-opacity="0.6"/>
  <text x="845" y="470" fill="white" font-size="10" font-weight="500" text-anchor="middle">🔧 sre-worker</text>
  <text x="845" y="488" fill="#64748b" font-size="7" text-anchor="middle">运维 &amp; 部署执行</text>

  <!-- CFO/COO/CPO stub trees -->
  <line x1="150" y1="218" x2="150" y2="448" stroke="#475569" stroke-width="0.5" stroke-dasharray="3,6" stroke-opacity="0.3"/>
  <rect x="80" y="448" width="140" height="40" rx="5" fill="none" stroke="#475569" stroke-width="0.5" stroke-dasharray="3,3" stroke-opacity="0.3"/>
  <text x="150" y="471" fill="#475569" font-size="8" text-anchor="middle" opacity="0.5">(待扩展)</text>

  <line x1="370" y1="218" x2="370" y2="448" stroke="#475569" stroke-width="0.5" stroke-dasharray="3,6" stroke-opacity="0.3"/>
  <rect x="300" y="448" width="140" height="40" rx="5" fill="none" stroke="#475569" stroke-width="0.5" stroke-dasharray="3,3" stroke-opacity="0.3"/>
  <text x="370" y="471" fill="#475569" font-size="8" text-anchor="middle" opacity="0.5">(待扩展)</text>

  <line x1="590" y1="218" x2="590" y2="448" stroke="#475569" stroke-width="0.5" stroke-dasharray="3,6" stroke-opacity="0.3"/>
  <rect x="520" y="448" width="140" height="40" rx="5" fill="none" stroke="#475569" stroke-width="0.5" stroke-dasharray="3,3" stroke-opacity="0.3"/>
  <text x="590" y="471" fill="#475569" font-size="8" text-anchor="middle" opacity="0.5">(待扩展)</text>

  <!-- Subtle separator -->
  <line x1="460" y1="146" x2="460" y2="503" stroke="#1e293b" stroke-width="1" stroke-dasharray="12,6"/>

  <!-- Legend -->
  <rect x="30" y="530" width="900" height="110" rx="4" fill="none" stroke="#1e293b" stroke-width="1"/>

  <rect x="50" y="542" width="12" height="12" rx="2" fill="#fbbf24"/>
  <text x="68" y="552" fill="#94a3b8" font-size="8">CEO</text>
  <rect x="130" y="542" width="12" height="12" rx="2" fill="#fb7185"/>
  <text x="148" y="552" fill="#94a3b8" font-size="8">CFO</text>
  <rect x="200" y="542" width="12" height="12" rx="2" fill="#60a5fa"/>
  <text x="218" y="552" fill="#94a3b8" font-size="8">COO</text>
  <rect x="270" y="542" width="12" height="12" rx="2" fill="#34d399"/>
  <text x="288" y="552" fill="#94a3b8" font-size="8">CPO</text>
  <rect x="340" y="542" width="12" height="12" rx="2" fill="#22d3ee"/>
  <text x="358" y="552" fill="#94a3b8" font-size="8">CTO (展开)</text>
  <rect x="450" y="542" width="12" height="12" rx="2" fill="#f59e0b"/>
  <text x="468" y="552" fill="#94a3b8" font-size="8">PMO (sessions_send)</text>
  <rect x="630" y="542" width="12" height="12" rx="2" fill="#a78bfa"/>
  <text x="648" y="552" fill="#94a3b8" font-size="8">专家层 (spawn)</text>
  <rect x="760" y="542" width="12" height="12" rx="2" fill="#64748b"/>
  <text x="778" y="552" fill="#94a3b8" font-size="8">执行层</text>

  <text x="50" y="578" fill="#475569" font-size="8">▶ CFO / COO / CPO 与 CTO 平级，均向 CEO 汇报。CTO 子树已展开（PMO + 4 专家 → Worker）。</text>
  <text x="50" y="596" fill="#475569" font-size="8">▶ CTO ↔ PMO 通过 sessions_send 协作（非 spawn），PMO 负责项目管理与 Wiki 发布。</text>
  <text x="50" y="614" fill="#475569" font-size="8">▶ 专家层（RD/性能/QA/SRE）通过 sessions_spawn 接收任务，可委托 Worker 执行。</text>
  <text x="50" y="632" fill="#475569" font-size="8">▶ Agent 间通过飞书群 @ 通信，由 feishu-bot-chat 插件实现原生 @ 转换。</text>
</svg>
