<svg xmlns="http://www.w3.org/2000/svg" viewBox="0 0 960 520" width="960" height="520">
  <style>
    text { font-family: 'SF Mono','Fira Code','Cascadia Code','Courier New','Microsoft YaHei','SimHei',monospace; fill: #e2e8f0; }
  </style>
  <defs>
    <linearGradient id="bg-grad" x1="0%" y1="0%" x2="100%" y2="100%">
      <stop offset="0%" stop-color="#0f0f1a"/>
      <stop offset="100%" stop-color="#1a1a2e"/>
    </linearGradient>
  </defs>
  <rect width="960" height="520" fill="url(#bg-grad)"/>
  <text x="480" y="28" font-size="17" font-weight="700" fill="#e2e8f0" text-anchor="middle">ByteHouse 云原生多模态数仓 · 三层解耦架构</text>
  <text x="480" y="48" font-size="11" fill="#94a3b8" text-anchor="middle">SIGMOD 2026 Companion · ByteDance · 400+ Internal Services</text>
  <rect x="30" y="60" width="900" height="118" rx="8" fill="#0f172a" stroke="#ec4899" stroke-width="1.5"/>
  <rect x="32" y="62" width="896" height="34" rx="8" fill="#1e1b4b"/>
  <rect x="32" y="88" width="896" height="8" fill="#1e1b4b"/>
  <text x="70" y="84" font-size="13" font-weight="700" fill="#f472b6">Control Layer 控制层</text>
  <rect x="55" y="105" width="200" height="58" rx="6" fill="#0f172a" stroke="#ec4899" stroke-width="1"/>
  <text x="155" y="121" font-size="11" font-weight="700" fill="#e2e8f0" text-anchor="middle">Server</text>
  <text x="155" y="139" font-size="9" fill="#94a3b8" text-anchor="middle">SQL 解析 · 语义分析</text>
  <text x="155" y="153" font-size="9" fill="#94a3b8" text-anchor="middle">HBO + ML 优化 · 调度</text>
  <rect x="275" y="105" width="200" height="58" rx="6" fill="#0f172a" stroke="#ec4899" stroke-width="1"/>
  <text x="375" y="121" font-size="11" font-weight="700" fill="#e2e8f0" text-anchor="middle">Catalog Manager (ByteKV)</text>
  <text x="375" y="139" font-size="9" fill="#94a3b8" text-anchor="middle">版本化元数据</text>
  <text x="375" y="153" font-size="9" fill="#94a3b8" text-anchor="middle">快照一致 schema/分区/索引</text>
  <rect x="495" y="105" width="200" height="58" rx="6" fill="#0f172a" stroke="#ec4899" stroke-width="1"/>
  <text x="595" y="121" font-size="11" font-weight="700" fill="#e2e8f0" text-anchor="middle">Global Tx Manager</text>
  <text x="595" y="139" font-size="9" fill="#94a3b8" text-anchor="middle">全局有序 commit timestamp</text>
  <text x="595" y="153" font-size="9" fill="#94a3b8" text-anchor="middle">可串行化 + 一致性快照读</text>
  <rect x="715" y="105" width="200" height="58" rx="6" fill="#0f172a" stroke="#ec4899" stroke-width="1"/>
  <text x="815" y="121" font-size="11" font-weight="700" fill="#e2e8f0" text-anchor="middle">Daemon Manager</text>
  <text x="815" y="139" font-size="9" fill="#94a3b8" text-anchor="middle">后台任务编排</text>
  <text x="815" y="153" font-size="9" fill="#94a3b8" text-anchor="middle">Compaction · Merge 调度</text>
  <line x1="480" y1="180" x2="480" y2="195" stroke="#334155" stroke-width="2" stroke-dasharray="4,3"/>
  <rect x="30" y="195" width="900" height="125" rx="8" fill="#0f172a" stroke="#3b82f6" stroke-width="1.5"/>
  <rect x="32" y="197" width="896" height="34" rx="8" fill="#1e3a5f"/>
  <rect x="32" y="223" width="896" height="8" fill="#1e3a5f"/>
  <text x="70" y="219" font-size="13" font-weight="700" fill="#60a5fa">Compute Layer 计算层 · 三模式执行引擎</text>
  <rect x="55" y="240" width="148" height="68" rx="6" fill="#0f172a" stroke="#3b82f6" stroke-width="1"/>
  <text x="129" y="256" font-size="11" font-weight="700" fill="#e2e8f0" text-anchor="middle">APM</text>
  <text x="129" y="272" font-size="9" fill="#94a3b8" text-anchor="middle">Analytic Pipeline</text>
  <text x="129" y="286" font-size="9" fill="#94a3b8" text-anchor="middle">分布式 MPP</text>
  <text x="129" y="300" font-size="9" fill="#94a3b8" text-anchor="middle">shuffle/gather/broadcast</text>
  <rect x="218" y="240" width="148" height="68" rx="6" fill="#0f172a" stroke="#3b82f6" stroke-width="1"/>
  <text x="292" y="256" font-size="11" font-weight="700" fill="#e2e8f0" text-anchor="middle">SBM</text>
  <text x="292" y="272" font-size="9" fill="#94a3b8" text-anchor="middle">Staged Batch</text>
  <text x="292" y="286" font-size="9" fill="#94a3b8" text-anchor="middle">长 ETL</text>
  <text x="292" y="300" font-size="9" fill="#94a3b8" text-anchor="middle">阶段重试 + shuffle 持久化</text>
  <rect x="381" y="240" width="148" height="68" rx="6" fill="#0f172a" stroke="#3b82f6" stroke-width="1"/>
  <text x="455" y="256" font-size="11" font-weight="700" fill="#e2e8f0" text-anchor="middle">IPM</text>
  <text x="455" y="272" font-size="9" fill="#94a3b8" text-anchor="middle">Incremental</text>
  <text x="455" y="286" font-size="9" fill="#94a3b8" text-anchor="middle">增量执行</text>
  <text x="455" y="300" font-size="9" fill="#94a3b8" text-anchor="middle">lineage + versioned</text>
  <rect x="544" y="240" width="175" height="68" rx="6" fill="#0f172a" stroke="#3b82f6" stroke-width="1"/>
  <text x="631" y="256" font-size="11" font-weight="700" fill="#e2e8f0" text-anchor="middle">Vector &amp; Hybrid Ops</text>
  <text x="631" y="272" font-size="9" fill="#94a3b8" text-anchor="middle">RANK_FUSION · Runtime Filter</text>
  <text x="631" y="286" font-size="9" fill="#94a3b8" text-anchor="middle">HNSW · IVF · DiskANN</text>
  <text x="631" y="300" font-size="9" fill="#94a3b8" text-anchor="middle">Arrow 零拷贝数据交换</text>
  <rect x="734" y="240" width="180" height="68" rx="6" fill="#0f172a" stroke="#3b82f6" stroke-width="1"/>
  <text x="824" y="256" font-size="11" font-weight="700" fill="#e2e8f0" text-anchor="middle">Unified Optimizer</text>
  <text x="824" y="272" font-size="9" fill="#94a3b8" text-anchor="middle">HBO 历史执行统计</text>
  <text x="824" y="286" font-size="9" fill="#94a3b8" text-anchor="middle">ML 回归模型</text>
  <text x="824" y="300" font-size="9" fill="#94a3b8" text-anchor="middle">谓词下推 + Join 选侧</text>
  <line x1="480" y1="322" x2="480" y2="337" stroke="#334155" stroke-width="2" stroke-dasharray="4,3"/>
  <rect x="30" y="335" width="900" height="165" rx="8" fill="#0f172a" stroke="#059669" stroke-width="1.5"/>
  <rect x="32" y="337" width="896" height="34" rx="8" fill="#052e16"/>
  <rect x="32" y="363" width="896" height="8" fill="#052e16"/>
  <text x="70" y="359" font-size="13" font-weight="700" fill="#34d399">Storage Layer 存储层</text>
  <rect x="55" y="380" width="265" height="108" rx="6" fill="#0f172a" stroke="#059669" stroke-width="1"/>
  <text x="187" y="396" font-size="11" font-weight="700" fill="#e2e8f0" text-anchor="middle">Unified Table Engine</text>
  <text x="187" y="414" font-size="9" fill="#94a3b8" text-anchor="middle">Document → Chunk 两级抽象</text>
  <text x="187" y="430" font-size="9" fill="#94a3b8" text-anchor="middle">Stable + Delta Segment · MVCC</text>
  <text x="187" y="446" font-size="9" fill="#94a3b8" text-anchor="middle">自适应 Compaction: α = f(N_Δ/N*)</text>
  <text x="187" y="462" font-size="9" fill="#34d399" text-anchor="middle">Staging (ByteKV) → Flush → Columnar</text>
  <rect x="338" y="380" width="182" height="108" rx="6" fill="#0f172a" stroke="#059669" stroke-width="1"/>
  <text x="429" y="396" font-size="11" font-weight="700" fill="#e2e8f0" text-anchor="middle">CrossCache</text>
  <text x="429" y="414" font-size="9" fill="#94a3b8" text-anchor="middle">SSD 集群缓存</text>
  <text x="429" y="430" font-size="9" fill="#94a3b8" text-anchor="middle">Chunk 粒度分片</text>
  <text x="429" y="446" font-size="9" fill="#94a3b8" text-anchor="middle">一致性哈希路由</text>
  <text x="429" y="462" font-size="9" fill="#34d399" text-anchor="middle">Prefetch + 异步刷写</text>
  <rect x="538" y="380" width="182" height="108" rx="6" fill="#0f172a" stroke="#059669" stroke-width="1"/>
  <text x="629" y="396" font-size="11" font-weight="700" fill="#e2e8f0" text-anchor="middle">NexusFS</text>
  <text x="629" y="414" font-size="9" fill="#94a3b8" text-anchor="middle">虚拟文件系统</text>
  <text x="629" y="430" font-size="9" fill="#94a3b8" text-anchor="middle">Local SSD + CrossCache + TOS</text>
  <text x="629" y="446" font-size="9" fill="#94a3b8" text-anchor="middle">对齐感知区域管理</text>
  <text x="629" y="462" font-size="9" fill="#34d399" text-anchor="middle">Buffer 编排</text>
  <rect x="738" y="380" width="176" height="108" rx="6" fill="#0f172a" stroke="#059669" stroke-width="1"/>
  <text x="826" y="396" font-size="11" font-weight="700" fill="#e2e8f0" text-anchor="middle">Sniffer Format</text>
  <text x="826" y="414" font-size="9" fill="#94a3b8" text-anchor="middle">自描述列式格式</text>
  <text x="826" y="430" font-size="9" fill="#94a3b8" text-anchor="middle">数据+索引+元数据 colocate</text>
  <text x="826" y="446" font-size="9" fill="#94a3b8" text-anchor="middle">Parquet · ORC · Lance</text>
  <text x="826" y="462" font-size="9" fill="#34d399" text-anchor="middle">单次 I/O 完成点查</text>
</svg>