<svg xmlns="http://www.w3.org/2000/svg" viewBox="0 0 880 530" width="880" height="530">
  <style>
    text { font-family: 'Helvetica Neue', Helvetica, Arial, 'PingFang SC', 'Microsoft YaHei', 'Microsoft JhengHei', 'SimHei', sans-serif; }
  </style>
  <defs>
    <marker id="arrow-blue" markerWidth="10" markerHeight="7" refX="9" refY="3.5" orient="auto">
      <polygon points="0 0, 10 3.5, 0 7" fill="#2563eb"/>
    </marker>
    <marker id="arrow-green" markerWidth="10" markerHeight="7" refX="9" refY="3.5" orient="auto">
      <polygon points="0 0, 10 3.5, 0 7" fill="#16a34a"/>
    </marker>
    <marker id="arrow-purple" markerWidth="10" markerHeight="7" refX="9" refY="3.5" orient="auto">
      <polygon points="0 0, 10 3.5, 0 7" fill="#9333ea"/>
    </marker>
    <marker id="arrow-orange" markerWidth="10" markerHeight="7" refX="9" refY="3.5" orient="auto">
      <polygon points="0 0, 10 3.5, 0 7" fill="#f97316"/>
    </marker>
    <marker id="arrow-red" markerWidth="10" markerHeight="7" refX="9" refY="3.5" orient="auto">
      <polygon points="0 0, 10 3.5, 0 7" fill="#dc2626"/>
    </marker>
    <marker id="arrow-gray" markerWidth="10" markerHeight="7" refX="9" refY="3.5" orient="auto">
      <polygon points="0 0, 10 3.5, 0 7" fill="#6b7280"/>
    </marker>
  </defs>
  <rect width="880" height="530" fill="#ffffff"/>
  <text x="30" y="32" fill="#111827" font-size="16" font-weight="700">Distributed Data Systems — Consistency Landscape</text>
  <text x="30" y="50" fill="#6b7280" font-size="11">Three pillars: Transaction Models · Event Horizon · Storage-Compute Separation</text>
  <text x="30" y="82" fill="#2563eb" font-size="12" font-weight="700">01 // TRANSACTION MODELS</text>
  <rect x="30" y="96" width="195" height="48" rx="8" fill="#eff6ff" stroke="#bfdbfe" stroke-width="1.5"/>
  <text x="128" y="116" fill="#111827" font-size="12" font-weight="600" text-anchor="middle">ACID</text>
  <text x="128" y="132" fill="#6b7280" font-size="10" text-anchor="middle">2PC/Paxos</text>
  <rect x="245" y="96" width="195" height="48" rx="8" fill="#eff6ff" stroke="#bfdbfe" stroke-width="1.5"/>
  <text x="343" y="116" fill="#111827" font-size="12" font-weight="600" text-anchor="middle">Snapshot Iso.</text>
  <text x="343" y="132" fill="#6b7280" font-size="10" text-anchor="middle">MVCC/Truetime</text>
  <rect x="460" y="96" width="195" height="48" rx="8" fill="#eff6ff" stroke="#bfdbfe" stroke-width="1.5"/>
  <text x="558" y="116" fill="#111827" font-size="12" font-weight="600" text-anchor="middle">Serializable</text>
  <text x="558" y="132" fill="#6b7280" font-size="10" text-anchor="middle">Calvin/OCC</text>
  <rect x="675" y="96" width="195" height="48" rx="8" fill="#eff6ff" stroke="#bfdbfe" stroke-width="1.5"/>
  <text x="773" y="116" fill="#111827" font-size="12" font-weight="600" text-anchor="middle">Read Committed</text>
  <text x="773" y="132" fill="#6b7280" font-size="10" text-anchor="middle">lock-based</text>
  <text x="30" y="174" fill="#16a34a" font-size="12" font-weight="700">02 // EVENT HORIZON — Asymmetric Dependencies</text>
  <rect x="30" y="188" width="195" height="48" rx="8" fill="#f0fdf4" stroke="#bbf7d0" stroke-width="1.5"/>
  <text x="128" y="208" fill="#111827" font-size="12" font-weight="600" text-anchor="middle">Causal Order</text>
  <text x="128" y="224" fill="#6b7280" font-size="10" text-anchor="middle">Lamport clock</text>
  <rect x="245" y="188" width="195" height="48" rx="8" fill="#f0fdf4" stroke="#bbf7d0" stroke-width="1.5"/>
  <text x="343" y="208" fill="#111827" font-size="12" font-weight="600" text-anchor="middle">Global Barriers</text>
  <text x="343" y="224" fill="#6b7280" font-size="10" text-anchor="middle">Flink watermark</text>
  <rect x="460" y="188" width="195" height="48" rx="8" fill="#f0fdf4" stroke="#bbf7d0" stroke-width="1.5"/>
  <text x="558" y="208" fill="#111827" font-size="12" font-weight="600" text-anchor="middle">Write-Skew</text>
  <text x="558" y="224" fill="#6b7280" font-size="10" text-anchor="middle">serializable check</text>
  <rect x="675" y="188" width="195" height="48" rx="8" fill="#f0fdf4" stroke="#bbf7d0" stroke-width="1.5"/>
  <text x="773" y="208" fill="#111827" font-size="12" font-weight="600" text-anchor="middle">Prior/After</text>
  <text x="773" y="224" fill="#6b7280" font-size="10" text-anchor="middle">event graph</text>
  <text x="30" y="266" fill="#9333ea" font-size="12" font-weight="700">03 // STORAGE-COMPUTE SEPARATION</text>
  <rect x="30" y="280" width="195" height="48" rx="8" fill="#faf5ff" stroke="#ddd6fe" stroke-width="1.5"/>
  <text x="128" y="300" fill="#111827" font-size="12" font-weight="600" text-anchor="middle">Shared-Disk</text>
  <text x="128" y="316" fill="#6b7280" font-size="10" text-anchor="middle">Aurora/Neon</text>
  <rect x="245" y="280" width="195" height="48" rx="8" fill="#faf5ff" stroke="#ddd6fe" stroke-width="1.5"/>
  <text x="343" y="300" fill="#111827" font-size="12" font-weight="600" text-anchor="middle">Shared-Nothing</text>
  <text x="343" y="316" fill="#6b7280" font-size="10" text-anchor="middle">FoundationDB</text>
  <rect x="460" y="280" width="195" height="48" rx="8" fill="#faf5ff" stroke="#ddd6fe" stroke-width="1.5"/>
  <text x="558" y="300" fill="#111827" font-size="12" font-weight="600" text-anchor="middle">Disagg Mem</text>
  <text x="558" y="316" fill="#6b7280" font-size="10" text-anchor="middle">RDMA pool</text>
  <rect x="675" y="280" width="195" height="48" rx="8" fill="#faf5ff" stroke="#ddd6fe" stroke-width="1.5"/>
  <text x="773" y="300" fill="#111827" font-size="12" font-weight="600" text-anchor="middle">Object Store</text>
  <text x="773" y="316" fill="#6b7280" font-size="10" text-anchor="middle">S3 primary</text>
  <text x="30" y="358" fill="#f97316" font-size="12" font-weight="700">04 // CROSS-CUTTING: Consensus + Clocks</text>
  <rect x="30" y="372" width="195" height="48" rx="8" fill="#fff7ed" stroke="#fed7aa" stroke-width="1.5"/>
  <text x="128" y="392" fill="#111827" font-size="12" font-weight="600" text-anchor="middle">Raft</text>
  <text x="128" y="408" fill="#6b7280" font-size="10" text-anchor="middle">leader replication</text>
  <rect x="245" y="372" width="195" height="48" rx="8" fill="#fff7ed" stroke="#fed7aa" stroke-width="1.5"/>
  <text x="343" y="392" fill="#111827" font-size="12" font-weight="600" text-anchor="middle">Paxos</text>
  <text x="343" y="408" fill="#6b7280" font-size="10" text-anchor="middle">majority quorum</text>
  <rect x="460" y="372" width="195" height="48" rx="8" fill="#fff7ed" stroke="#fed7aa" stroke-width="1.5"/>
  <text x="558" y="392" fill="#111827" font-size="12" font-weight="600" text-anchor="middle">TrueTime</text>
  <text x="558" y="408" fill="#6b7280" font-size="10" text-anchor="middle">Google Spanner</text>
  <rect x="675" y="372" width="195" height="48" rx="8" fill="#fff7ed" stroke="#fed7aa" stroke-width="1.5"/>
  <text x="773" y="392" fill="#111827" font-size="12" font-weight="600" text-anchor="middle">Hybrid LC</text>
  <text x="773" y="408" fill="#6b7280" font-size="10" text-anchor="middle">HLC/HLClock</text>
  <text x="30" y="450" fill="#dc2626" font-size="12" font-weight="700">05 // REPRESENTATIVE SYSTEMS</text>
  <rect x="30" y="464" width="104" height="30" rx="8" fill="#ffffff" stroke="#d1d5db" stroke-width="1.5"/>
  <text x="82" y="484" fill="#374151" font-size="10" font-weight="500" text-anchor="middle">Spanner</text>
  <rect x="148" y="464" width="104" height="30" rx="8" fill="#ffffff" stroke="#d1d5db" stroke-width="1.5"/>
  <text x="200" y="484" fill="#374151" font-size="10" font-weight="500" text-anchor="middle">CockroachDB</text>
  <rect x="266" y="464" width="104" height="30" rx="8" fill="#ffffff" stroke="#d1d5db" stroke-width="1.5"/>
  <text x="318" y="484" fill="#374151" font-size="10" font-weight="500" text-anchor="middle">TiDB</text>
  <rect x="384" y="464" width="104" height="30" rx="8" fill="#ffffff" stroke="#d1d5db" stroke-width="1.5"/>
  <text x="436" y="484" fill="#374151" font-size="10" font-weight="500" text-anchor="middle">FoundationDB</text>
  <rect x="502" y="464" width="104" height="30" rx="8" fill="#ffffff" stroke="#d1d5db" stroke-width="1.5"/>
  <text x="554" y="484" fill="#374151" font-size="10" font-weight="500" text-anchor="middle">Aurora</text>
  <rect x="620" y="464" width="104" height="30" rx="8" fill="#ffffff" stroke="#d1d5db" stroke-width="1.5"/>
  <text x="672" y="484" fill="#374151" font-size="10" font-weight="500" text-anchor="middle">Neon</text>
  <rect x="738" y="464" width="104" height="30" rx="8" fill="#ffffff" stroke="#d1d5db" stroke-width="1.5"/>
  <text x="790" y="484" fill="#374151" font-size="10" font-weight="500" text-anchor="middle">YugabyteDB</text>
  <g transform="translate(30, 512)">
    <rect x="0" y="0" width="14" height="14" rx="3" fill="#eff6ff" stroke="#bfdbfe" stroke-width="1"/>
    <text x="20" y="12" fill="#6b7280" font-size="10">Txn Models</text>
    <rect x="140" y="0" width="14" height="14" rx="3" fill="#f0fdf4" stroke="#bbf7d0" stroke-width="1"/>
    <text x="160" y="12" fill="#6b7280" font-size="10">Event Horizon</text>
    <rect x="280" y="0" width="14" height="14" rx="3" fill="#faf5ff" stroke="#ddd6fe" stroke-width="1"/>
    <text x="300" y="12" fill="#6b7280" font-size="10">S-C Split</text>
    <rect x="420" y="0" width="14" height="14" rx="3" fill="#fff7ed" stroke="#fed7aa" stroke-width="1"/>
    <text x="440" y="12" fill="#6b7280" font-size="10">Consensus</text>
    <rect x="560" y="0" width="14" height="14" rx="3" fill="#f9fafb" stroke="#d1d5db" stroke-width="1"/>
    <text x="580" y="12" fill="#6b7280" font-size="10">Systems</text>
  </g>
</svg>
