<svg xmlns="http://www.w3.org/2000/svg" viewBox="0 0 840 440" width="840" height="440">
  <style>
    text { font-family: "Helvetica Neue",Helvetica,Arial,"PingFang SC","Microsoft YaHei","Microsoft JhengHei","SimHei",sans-serif; }
  </style>
  <defs>
    <marker id="a-blue" markerWidth="10" markerHeight="7" refX="9" refY="3.5" orient="auto">
      <polygon points="0 0, 10 3.5, 0 7" fill="#2563eb"/>
    </marker>
    <marker id="a-gray" markerWidth="10" markerHeight="7" refX="9" refY="3.5" orient="auto">
      <polygon points="0 0, 10 3.5, 0 7" fill="#6b7280"/>
    </marker>
  </defs>
  <rect width="840" height="440" fill="#ffffff"/>
  <text x="30" y="32" fill="#111827" font-size="16" font-weight="700">Doris Architecture Evolution — Palo 1.0 → v3.0</text>
  <text x="30" y="50" fill="#6b7280" font-size="11">From tightly-coupled Shared-Nothing to disaggregated Storage-Compute Separation</text>
  <text x="30" y="82" fill="#dc2626" font-size="12" font-weight="700">Palo 1.0 (2017)</text>
  <rect x="30" y="96" width="182" height="52" rx="8" fill="#fef2f2" stroke="#fecaca" stroke-width="1.5"/>
  <text x="121" y="116" fill="#111827" font-size="10" font-weight="600" text-anchor="middle">FE+BE</text>
  <text x="121" y="134" fill="#6b7280" font-size="9" text-anchor="middle">local disk</text>
  <rect x="230" y="96" width="182" height="52" rx="8" fill="#fef2f2" stroke="#fecaca" stroke-width="1.5"/>
  <text x="321" y="116" fill="#111827" font-size="10" font-weight="600" text-anchor="middle">MySQL</text>
  <text x="321" y="134" fill="#6b7280" font-size="9" text-anchor="middle">frontend</text>
  <rect x="430" y="96" width="182" height="52" rx="8" fill="#fef2f2" stroke="#fecaca" stroke-width="1.5"/>
  <text x="521" y="116" fill="#111827" font-size="10" font-weight="600" text-anchor="middle">BDB-JE</text>
  <text x="521" y="134" fill="#6b7280" font-size="9" text-anchor="middle">embedded</text>
  <rect x="630" y="96" width="182" height="52" rx="8" fill="#fef2f2" stroke="#fecaca" stroke-width="1.5"/>
  <text x="721" y="116" fill="#111827" font-size="10" font-weight="600" text-anchor="middle">No MoW</text>
  <text x="721" y="134" fill="#6b7280" font-size="9" text-anchor="middle">batch load</text>
  <line x1="420" y1="148" x2="420" y2="162" stroke="#2563eb" stroke-width="1.5" marker-end="url(#a-blue)"/>
  <text x="30" y="200" fill="#f97316" font-size="12" font-weight="700">Doris 1.x (2020–2022)</text>
  <rect x="30" y="214" width="182" height="52" rx="8" fill="#fff7ed" stroke="#fed7aa" stroke-width="1.5"/>
  <text x="121" y="234" fill="#111827" font-size="10" font-weight="600" text-anchor="middle">FE/BE</text>
  <text x="121" y="252" fill="#6b7280" font-size="9" text-anchor="middle">FE stateless</text>
  <rect x="230" y="214" width="182" height="52" rx="8" fill="#fff7ed" stroke="#fed7aa" stroke-width="1.5"/>
  <text x="321" y="234" fill="#111827" font-size="10" font-weight="600" text-anchor="middle">Nereids</text>
  <text x="321" y="252" fill="#6b7280" font-size="9" text-anchor="middle">cost optimizer</text>
  <rect x="430" y="214" width="182" height="52" rx="8" fill="#fff7ed" stroke="#fed7aa" stroke-width="1.5"/>
  <text x="521" y="234" fill="#111827" font-size="10" font-weight="600" text-anchor="middle">Segment v2</text>
  <text x="521" y="252" fill="#6b7280" font-size="9" text-anchor="middle">zone map idx</text>
  <rect x="630" y="214" width="182" height="52" rx="8" fill="#fff7ed" stroke="#fed7aa" stroke-width="1.5"/>
  <text x="721" y="234" fill="#111827" font-size="10" font-weight="600" text-anchor="middle">MoW Upsert</text>
  <text x="721" y="252" fill="#6b7280" font-size="9" text-anchor="middle">DELETE_BITMAP</text>
  <line x1="420" y1="266" x2="420" y2="280" stroke="#2563eb" stroke-width="1.5" marker-end="url(#a-blue)"/>
  <text x="30" y="318" fill="#16a34a" font-size="12" font-weight="700">Doris 2.0/3.0 (2023–)</text>
  <rect x="30" y="332" width="182" height="52" rx="8" fill="#f0fdf4" stroke="#bbf7d0" stroke-width="1.5"/>
  <text x="121" y="352" fill="#111827" font-size="10" font-weight="600" text-anchor="middle">FE/Compute</text>
  <text x="121" y="370" fill="#6b7280" font-size="9" text-anchor="middle">auto-scale</text>
  <rect x="230" y="332" width="182" height="52" rx="8" fill="#f0fdf4" stroke="#bbf7d0" stroke-width="1.5"/>
  <text x="321" y="352" fill="#111827" font-size="10" font-weight="600" text-anchor="middle">Meta Svc</text>
  <text x="321" y="370" fill="#6b7280" font-size="9" text-anchor="middle">replace BDB-JE</text>
  <rect x="430" y="332" width="182" height="52" rx="8" fill="#f0fdf4" stroke="#bbf7d0" stroke-width="1.5"/>
  <text x="521" y="352" fill="#111827" font-size="10" font-weight="600" text-anchor="middle">Shared</text>
  <text x="521" y="370" fill="#6b7280" font-size="9" text-anchor="middle">remote data</text>
  <rect x="630" y="332" width="182" height="52" rx="8" fill="#f0fdf4" stroke="#bbf7d0" stroke-width="1.5"/>
  <text x="721" y="352" fill="#111827" font-size="10" font-weight="600" text-anchor="middle">Cloud</text>
  <text x="721" y="370" fill="#6b7280" font-size="9" text-anchor="middle">K8s deploy</text>
  <g transform="translate(30,410)">
    <rect x="0" y="0" width="14" height="14" rx="3" fill="#fef2f2" stroke="#fecaca" stroke-width="1"/>
    <text x="20" y="12" fill="#6b7280" font-size="10">Palo 1.0</text>
    <rect x="150" y="0" width="14" height="14" rx="3" fill="#fff7ed" stroke="#fed7aa" stroke-width="1"/>
    <text x="170" y="12" fill="#6b7280" font-size="10">Doris 1.x</text>
    <rect x="300" y="0" width="14" height="14" rx="3" fill="#f0fdf4" stroke="#bbf7d0" stroke-width="1"/>
    <text x="320" y="12" fill="#6b7280" font-size="10">Doris 2.0+</text>
  </g>
</svg>
