<?xml version="1.0" encoding="UTF-8"?>
<svg viewBox="0 0 680 200" xmlns="http://www.w3.org/2000/svg" style="max-width:100%">
  <defs>
    <marker id="arrow-down" markerWidth="6" markerHeight="8" refX="3" refY="8" orient="auto">
      <path d="M0,0 L3,8 L6,0 Z" fill="currentColor"/>
    </marker>
    <marker id="arrow-right5" markerWidth="8" markerHeight="6" refX="8" refY="3" orient="auto">
      <path d="M0,0 L8,3 L0,6 Z" fill="currentColor"/>
    </marker>
  </defs>
  <!-- Client -->
  <rect x="200" y="5" width="280" height="30" rx="6" fill="transparent" stroke="currentColor" stroke-width="2"/>
  <text x="340" y="24" font-family="sans-serif" font-size="12" fill="currentColor" text-anchor="middle" dominant-baseline="middle">Client (MySQL Protocol / HTTP / Arrow Flight)</text>
  <!-- Arrow down -->
  <line x1="340" y1="35" x2="340" y2="50" stroke="currentColor" stroke-width="2" marker-end="url(#arrow-down)"/>
  <!-- FE row -->
  <rect x="110" y="52" width="80" height="28" rx="6" fill="transparent" stroke="currentColor" stroke-width="2"/>
  <text x="150" y="68" font-family="sans-serif" font-size="12" fill="currentColor" text-anchor="middle" dominant-baseline="middle">SQL Parser</text>
  <line x1="190" y1="66" x2="205" y2="66" stroke="currentColor" stroke-width="1.8" marker-end="url(#arrow-right5)"/>
  <rect x="208" y="52" width="80" height="28" rx="6" fill="transparent" stroke="currentColor" stroke-width="2"/>
  <text x="248" y="68" font-family="sans-serif" font-size="12" fill="currentColor" text-anchor="middle" dominant-baseline="middle">Analyzer</text>
  <line x1="288" y1="66" x2="303" y2="66" stroke="currentColor" stroke-width="1.8" marker-end="url(#arrow-right5)"/>
  <rect x="306" y="52" width="78" height="28" rx="6" fill="transparent" stroke="currentColor" stroke-width="2"/>
  <text x="345" y="68" font-family="sans-serif" font-size="12" fill="currentColor" text-anchor="middle" dominant-baseline="middle">Optimizer</text>
  <line x1="384" y1="66" x2="399" y2="66" stroke="currentColor" stroke-width="1.8" marker-end="url(#arrow-right5)"/>
  <rect x="402" y="52" width="88" height="28" rx="6" fill="transparent" stroke="currentColor" stroke-width="2"/>
  <text x="446" y="68" font-family="sans-serif" font-size="12" fill="currentColor" text-anchor="middle" dominant-baseline="middle">Coordinator</text>
  <line x1="490" y1="66" x2="505" y2="66" stroke="currentColor" stroke-width="1.8" marker-end="url(#arrow-right5)"/>
  <rect x="508" y="52" width="88" height="28" rx="6" fill="transparent" stroke="currentColor" stroke-width="2"/>
  <text x="552" y="68" font-family="sans-serif" font-size="12" fill="currentColor" text-anchor="middle" dominant-baseline="middle">Result Merger</text>
  <!-- Label: FE -->
  <text x="60" y="68" font-family="sans-serif" font-size="12" fill="currentColor" text-anchor="end" dominant-baseline="middle" font-weight="bold">FE (Java):</text>
  <!-- Arrow down Plan Fragments -->
  <line x1="340" y1="80" x2="340" y2="100" stroke="currentColor" stroke-width="2" marker-end="url(#arrow-down)"/>
  <text x="348" y="93" font-family="sans-serif" font-size="10" fill="currentColor">Plan Fragments</text>
  <!-- BE row -->
  <rect x="50" y="105" width="70" height="28" rx="6" fill="transparent" stroke="currentColor" stroke-width="2"/>
  <text x="85" y="121" font-family="sans-serif" font-size="12" fill="currentColor" text-anchor="middle" dominant-baseline="middle">Scan</text>
  <line x1="120" y1="119" x2="135" y2="119" stroke="currentColor" stroke-width="1.8" marker-end="url(#arrow-right5)"/>
  <rect x="138" y="105" width="70" height="28" rx="6" fill="transparent" stroke="currentColor" stroke-width="2"/>
  <text x="173" y="121" font-family="sans-serif" font-size="12" fill="currentColor" text-anchor="middle" dominant-baseline="middle">Filter</text>
  <line x1="208" y1="119" x2="223" y2="119" stroke="currentColor" stroke-width="1.8" marker-end="url(#arrow-right5)"/>
  <rect x="226" y="105" width="65" height="28" rx="6" fill="transparent" stroke="currentColor" stroke-width="2"/>
  <text x="258" y="121" font-family="sans-serif" font-size="12" fill="currentColor" text-anchor="middle" dominant-baseline="middle">Join</text>
  <line x1="291" y1="119" x2="306" y2="119" stroke="currentColor" stroke-width="1.8" marker-end="url(#arrow-right5)"/>
  <rect x="309" y="105" width="65" height="28" rx="6" fill="transparent" stroke="currentColor" stroke-width="2"/>
  <text x="341" y="121" font-family="sans-serif" font-size="12" fill="currentColor" text-anchor="middle" dominant-baseline="middle">Agg</text>
  <line x1="374" y1="119" x2="389" y2="119" stroke="currentColor" stroke-width="1.8" marker-end="url(#arrow-right5)"/>
  <rect x="392" y="105" width="65" height="28" rx="6" fill="transparent" stroke="currentColor" stroke-width="2"/>
  <text x="424" y="121" font-family="sans-serif" font-size="12" fill="currentColor" text-anchor="middle" dominant-baseline="middle">Sort</text>
  <line x1="457" y1="119" x2="472" y2="119" stroke="currentColor" stroke-width="1.8" marker-end="url(#arrow-right5)"/>
  <rect x="475" y="105" width="65" height="28" rx="6" fill="transparent" stroke="currentColor" stroke-width="2"/>
  <text x="507" y="121" font-family="sans-serif" font-size="12" fill="currentColor" text-anchor="middle" dominant-baseline="middle">Sink</text>
  <!-- Label: BE -->
  <text x="40" y="121" font-family="sans-serif" font-size="12" fill="currentColor" text-anchor="end" dominant-baseline="middle" font-weight="bold">BE (C++):</text>
  <!-- Arrow up for vectorized engine -->
  <line x1="340" y1="138" x2="340" y2="152" stroke="currentColor" stroke-width="1.5" marker-end="url(#arrow-down)"/>
  <rect x="230" y="155" width="220" height="24" rx="4" fill="transparent" stroke="currentColor" stroke-width="1.5"/>
  <text x="340" y="169" font-family="sans-serif" font-size="11" fill="currentColor" text-anchor="middle" dominant-baseline="middle">向量化引擎 (4096行/Batch, SIMD)</text>
</svg>