<?xml version="1.0" encoding="UTF-8"?>
<svg viewBox="0 0 650 100" xmlns="http://www.w3.org/2000/svg" style="max-width:100%">
  <defs>
    <marker id="arrow-f" markerWidth="8" markerHeight="6" refX="8" refY="3" orient="auto">
      <path d="M0,0 L8,3 L0,6 Z" fill="currentColor"/>
    </marker>
    <marker id="arrow-b" markerWidth="8" markerHeight="6" refX="0" refY="3" orient="auto">
      <path d="M8,0 L0,3 L8,6 Z" fill="currentColor"/>
    </marker>
  </defs>
  
  <!-- Fragment 0 -->
  <rect x="10" y="10" width="175" height="24" rx="5" fill="transparent" stroke="currentColor" stroke-width="1.8"/>
  <text x="97" y="24" font-family="sans-serif" font-size="11" fill="currentColor" text-anchor="middle" dominant-baseline="middle">Fragment 0 (Coordinator)</text>
  <line x1="185" y1="22" x2="215" y2="22" stroke="currentColor" stroke-width="1.8" marker-end="url(#arrow-f)"/>
  <text x="210" y="15" font-family="sans-serif" font-size="10" fill="currentColor">Result Sink</text>
  <line x1="220" y1="22" x2="250" y2="22" stroke="currentColor" stroke-width="1.8" marker-end="url(#arrow-f)"/>
  <text x="240" y="15" font-family="sans-serif" font-size="10" fill="currentColor">Merge</text>
  <line x1="255" y1="22" x2="280" y2="22" stroke="currentColor" stroke-width="1.8" marker-end="url(#arrow-f)"/>
  <text x="270" y="15" font-family="sans-serif" font-size="10" fill="currentColor">Client</text>
  
  <!-- Fragment 1 -->
  <rect x="10" y="40" width="175" height="24" rx="5" fill="transparent" stroke="currentColor" stroke-width="1.8"/>
  <text x="97" y="54" font-family="sans-serif" font-size="11" fill="currentColor" text-anchor="middle" dominant-baseline="middle">Fragment 1 (Agg BE)</text>
  <line x1="185" y1="52" x2="215" y2="52" stroke="currentColor" stroke-width="1.8"/>
  <text x="210" y="45" font-family="sans-serif" font-size="10" fill="currentColor">Final Agg</text>
  <line x1="220" y1="52" x2="250" y2="52" stroke="currentColor" stroke-width="1.8" marker-end="url(#arrow-b)"/>
  <rect x="260" y="42" width="85" height="20" rx="3" fill="transparent" stroke="currentColor" stroke-width="1" stroke-dasharray="3,2"/>
  <text x="302" y="54" font-family="sans-serif" font-size="10" fill="currentColor" text-anchor="middle" dominant-baseline="middle">EXCHANGE</text>
  
  <!-- Fragment 2 -->
  <rect x="10" y="70" width="175" height="24" rx="5" fill="transparent" stroke="currentColor" stroke-width="1.8"/>
  <text x="97" y="84" font-family="sans-serif" font-size="11" fill="currentColor" text-anchor="middle" dominant-baseline="middle">Fragment 2 (Scan BE)</text>
  <line x1="185" y1="82" x2="215" y2="82" stroke="currentColor" stroke-width="1.8" marker-end="url(#arrow-f)"/>
  <text x="210" y="75" font-family="sans-serif" font-size="10" fill="currentColor">Pre Agg</text>
  <line x1="220" y1="82" x2="250" y2="82" stroke="currentColor" stroke-width="1.8" marker-end="url(#arrow-f)"/>
  <rect x="260" y="72" width="85" height="20" rx="3" fill="transparent" stroke="currentColor" stroke-width="1" stroke-dasharray="3,2"/>
  <text x="302" y="84" font-family="sans-serif" font-size="10" fill="currentColor" text-anchor="middle" dominant-baseline="middle">EXCHANGE</text>
</svg>