<?xml version="1.0" encoding="UTF-8"?>
<svg xmlns="http://www.w3.org/2000/svg" viewBox="0 0 700 250" width="700" height="250">
  <defs>
    <marker id="arrow-dor3" markerWidth="8" markerHeight="6" refX="8" refY="3" orient="auto">
      <path d="M0,0 L8,3 L0,6 Z" fill="currentColor"/>
    </marker>
  </defs>
  <text x="10" y="18" font-family="sans-serif" font-size="13" fill="currentColor" text-anchor="start" dominant-baseline="middle" font-weight="bold">写入时：</text>
  <rect x="10" y="30" width="210" height="26" rx="5" fill="transparent" stroke="currentColor" stroke-width="1"/>
  <text x="115" y="43" font-family="sans-serif" font-size="11" fill="currentColor" text-anchor="middle" dominant-baseline="middle">1. 按 Sort Key 排序内存 Batch</text>
  <line x1="220" y1="43" x2="255" y2="43" stroke="currentColor" stroke-width="1.2" marker-end="url(#arrow-dor3)"/>
  <rect x="258" y="30" width="210" height="26" rx="5" fill="transparent" stroke="currentColor" stroke-width="1"/>
  <text x="363" y="43" font-family="sans-serif" font-size="11" fill="currentColor" text-anchor="middle" dominant-baseline="middle">2. 逐 Key 查询 Tablet 内是否存在</text>
  <line x1="363" y1="56" x2="363" y2="72" stroke="currentColor" stroke-width="1.2"/>
  <line x1="200" y1="72" x2="526" y2="72" stroke="currentColor" stroke-width="1.2"/>
  <line x1="200" y1="72" x2="200" y2="90" stroke="currentColor" stroke-width="1.2"/>
  <line x1="526" y1="72" x2="526" y2="90" stroke="currentColor" stroke-width="1.2"/>
  <rect x="110" y="90" width="180" height="26" rx="5" fill="transparent" stroke="currentColor" stroke-width="1" stroke-dasharray="4,2"/>
  <text x="200" y="103" font-family="sans-serif" font-size="11" fill="currentColor" text-anchor="middle" dominant-baseline="middle">├ 不存在 → 写入 Segment 新数据行</text>
  <rect x="370" y="90" width="310" height="26" rx="5" fill="transparent" stroke="currentColor" stroke-width="1" stroke-dasharray="4,2"/>
  <text x="525" y="103" font-family="sans-serif" font-size="11" fill="currentColor" text-anchor="middle" dominant-baseline="middle">└ 存在 → 标记旧行 DELETE_BITMAP + 写入新数据行</text>
  <line x1="200" y1="116" x2="200" y2="140" stroke="currentColor" stroke-width="1.2"/>
  <line x1="200" y1="140" x2="375" y2="140" stroke="currentColor" stroke-width="1.2"/>
  <line x1="375" y1="140" x2="375" y2="160" stroke="currentColor" stroke-width="1.2"/>
  <rect x="210" y="140" width="330" height="26" rx="5" fill="transparent" stroke="currentColor" stroke-width="1"/>
  <text x="375" y="153" font-family="sans-serif" font-size="11" fill="currentColor" text-anchor="middle" dominant-baseline="middle">3. Segment 写满（默认 256MB）后封存</text>
  <line x1="375" y1="166" x2="375" y2="185" stroke="currentColor" stroke-width="1.2" marker-end="url(#arrow-dor3)"/>
  <rect x="260" y="185" width="230" height="26" rx="5" fill="transparent" stroke="currentColor" stroke-width="1"/>
  <text x="375" y="198" font-family="sans-serif" font-size="11" fill="currentColor" text-anchor="middle" dominant-baseline="middle">4. Rowset 提交（可见）</text>
  <text x="10" y="228" font-family="sans-serif" font-size="13" fill="currentColor" text-anchor="start" dominant-baseline="middle" font-weight="bold">查询时：</text>
  <text x="115" y="228" font-family="sans-serif" font-size="11" fill="currentColor" text-anchor="start" dominant-baseline="middle">直接读最新版本 → 无合并开销</text>
</svg>