<?xml version="1.0" encoding="UTF-8"?>
<svg viewBox="0 0 700 340" xmlns="http://www.w3.org/2000/svg" style="max-width:100%;height:auto">
  <style>
    text { font-family: sans-serif; font-size: 13px; fill: currentColor; dominant-baseline: middle; }
    .dim { font-size: 11px; opacity: 0.7; }
  </style>
  <defs>
    <marker id="a1" markerWidth="8" markerHeight="6" refX="8" refY="3" orient="auto">
      <path d="M0,0 L8,3 L0,6 Z" fill="currentColor"/>
    </marker>
  </defs>

  <!-- Root -->
  <text x="20" y="25" font-weight="bold" font-size="14" text-anchor="start">Catalog Root</text>

  <!-- Internal Catalog branch -->
  <line x1="40" y1="32" x2="40" y2="45" stroke="currentColor" stroke-width="1.5"/>
  <line x1="40" y1="45" x2="60" y2="45" stroke="currentColor" stroke-width="1.5"/>
  <text x="65" y="45" font-size="13" text-anchor="start">Internal Catalog (Doris 原生表)</text>
  <line x1="40" y1="45" x2="40" y2="58" stroke="currentColor" stroke-width="1.5"/>

  <!-- Database → Table -->
  <line x1="40" y1="58" x2="60" y2="58" stroke="currentColor" stroke-width="1.5"/>
  <text x="65" y="58" font-size="13" text-anchor="start">Database → Table</text>

  <!-- Column -->
  <line x1="40" y1="58" x2="40" y2="74" stroke="currentColor" stroke-width="1.5"/>
  <line x1="40" y1="74" x2="60" y2="74" stroke="currentColor" stroke-width="1.5"/>
  <rect x="45" y="78" width="180" height="20" rx="3" fill="transparent" stroke="currentColor"/>
  <text x="55" y="92" font-size="12" text-anchor="start">Column (类型/编码/压缩)</text>

  <!-- Index -->
  <line x1="40" y1="74" x2="40" y2="102" stroke="currentColor" stroke-width="1.5"/>
  <line x1="40" y1="102" x2="60" y2="102" stroke="currentColor" stroke-width="1.5"/>
  <rect x="45" y="106" width="210" height="20" rx="3" fill="transparent" stroke="currentColor"/>
  <text x="55" y="120" font-size="12" text-anchor="start">Index (前缀/Bloom/Bitmap/Inverted)</text>

  <!-- Partition -->
  <line x1="40" y1="102" x2="40" y2="130" stroke="currentColor" stroke-width="1.5"/>
  <line x1="40" y1="130" x2="60" y2="130" stroke="currentColor" stroke-width="1.5"/>
  <rect x="45" y="134" width="190" height="20" rx="3" fill="transparent" stroke="currentColor"/>
  <text x="55" y="148" font-size="12" text-anchor="start">Partition (Range/List/TTL)</text>

  <!-- Tablet → Replica -->
  <line x1="40" y1="130" x2="40" y2="160" stroke="currentColor" stroke-width="1.5"/>
  <line x1="40" y1="160" x2="60" y2="160" stroke="currentColor" stroke-width="1.5"/>
  <text x="65" y="160" font-size="13" text-anchor="start">Tablet → Replica</text>
  <text x="65" y="175" class="dim" text-anchor="start">(NORMAL/ALTER/CLONE)</text>

  <!-- External Catalogs -->
  <line x1="40" y1="160" x2="40" y2="195" stroke="currentColor" stroke-width="1.5"/>
  <line x1="40" y1="195" x2="60" y2="195" stroke="currentColor" stroke-width="1.5"/>
  <text x="65" y="195" font-size="13" text-anchor="start">Hive Catalog → ExternalTable</text>

  <line x1="40" y1="195" x2="40" y2="210" stroke="currentColor" stroke-width="1.5"/>
  <line x1="40" y1="210" x2="60" y2="210" stroke="currentColor" stroke-width="1.5"/>
  <text x="65" y="210" font-size="13" text-anchor="start">Iceberg Catalog → IcebergTable</text>

  <line x1="40" y1="210" x2="40" y2="225" stroke="currentColor" stroke-width="1.5"/>
  <line x1="40" y1="225" x2="60" y2="225" stroke="currentColor" stroke-width="1.5"/>
  <text x="65" y="225" font-size="13" text-anchor="start">ES/JDBC Catalog → ExternalTable</text>
</svg>