<svg xmlns="http://www.w3.org/2000/svg" viewBox="0 0 650 185" width="650" height="185">
  <style>
    text { font-family: 'SF Mono', 'Fira Code', 'Cascadia Code', 'Courier New', 'Microsoft YaHei', 'SimHei', monospace; }
  </style>
  <defs>
    <linearGradient id="bg-grad" x1="0%" y1="0%" x2="100%" y2="100%">
      <stop offset="0%" stop-color="#0f0f1a"/>
      <stop offset="100%" stop-color="#1a1a2e"/>
    </linearGradient>
      <marker id="arrow-3b82f6" markerWidth="10" markerHeight="7" refX="9" refY="3.5" orient="auto" markerUnits="userSpaceOnUse" overflow="visible">
      <polygon points="0 0, 10 3.5, 0 7" fill="#3b82f6"/>
    </marker>
    <marker id="arrow-ea580c" markerWidth="10" markerHeight="7" refX="9" refY="3.5" orient="auto" markerUnits="userSpaceOnUse" overflow="visible">
      <polygon points="0 0, 10 3.5, 0 7" fill="#ea580c"/>
    </marker>
  </defs>
  <rect width="650" height="185" fill="url(#bg-grad)"/>
  <text x="325" y="16" font-size="13" font-weight="bold" fill="#e2e8f0" text-anchor="middle">Doris 数据模型选择决策树</text>
  <rect x="225" y="26" width="200" height="28" rx="14" fill="#1e3a5f" stroke="#3b82f6" stroke-width="1.5"/>
  <text x="325" y="43" font-size="11" fill="#e2e8f0" text-anchor="middle">写入模式是 Append-only?</text>
  <line x1="325" y1="54" x2="325" y2="72" stroke="#3b82f6" stroke-width="1" marker-end="url(#arrow-3b82f6)"/>
  <line x1="180" y1="72" x2="470" y2="72" stroke="#3b82f6" stroke-width="1" marker-end="url(#arrow-3b82f6)"/>
  <line x1="180" y1="72" x2="180" y2="86" stroke="#3b82f6" stroke-width="1" marker-end="url(#arrow-3b82f6)"/>
  <line x1="470" y1="72" x2="470" y2="86" stroke="#3b82f6" stroke-width="1" marker-end="url(#arrow-3b82f6)"/>
  <rect x="95" y="86" width="170" height="28" rx="14" fill="#1c1917" stroke="#ea580c" stroke-width="1.2"/>
  <text x="180" y="103" font-size="11" fill="#e2e8f0" text-anchor="middle">需要聚合?</text>
  <rect x="385" y="86" width="170" height="28" rx="14" fill="#1c1917" stroke="#ea580c" stroke-width="1.2"/>
  <text x="470" y="103" font-size="11" fill="#e2e8f0" text-anchor="middle">需要 UPSERT 主键更新?</text>
  <line x1="180" y1="114" x2="180" y2="130" stroke="#ea580c" stroke-width="1" marker-end="url(#arrow-ea580c)"/>
  <line x1="85" y1="130" x2="275" y2="130" stroke="#ea580c" stroke-width="1" marker-end="url(#arrow-ea580c)"/>
  <line x1="85" y1="130" x2="85" y2="146" stroke="#ea580c" stroke-width="1" marker-end="url(#arrow-ea580c)"/>
  <line x1="275" y1="130" x2="275" y2="146" stroke="#ea580c" stroke-width="1" marker-end="url(#arrow-ea580c)"/>
  <rect x="12" y="146" width="145" height="24" rx="6" fill="#052e16" stroke="#059669" stroke-width="1"/>
  <text x="84" y="161" font-size="11" fill="#10b981" text-anchor="middle">✓ Aggregate 模型</text>
  <rect x="210" y="146" width="145" height="24" rx="6" fill="#052e16" stroke="#059669" stroke-width="1"/>
  <text x="282" y="161" font-size="11" fill="#3b82f6" text-anchor="middle">✓ Duplicate 模型</text>
  <line x1="470" y1="114" x2="470" y2="130" stroke="#ea580c" stroke-width="1" marker-end="url(#arrow-ea580c)"/>
  <line x1="400" y1="130" x2="540" y2="130" stroke="#ea580c" stroke-width="1" marker-end="url(#arrow-ea580c)"/>
  <line x1="400" y1="130" x2="400" y2="146" stroke="#ea580c" stroke-width="1" marker-end="url(#arrow-ea580c)"/>
  <line x1="540" y1="130" x2="540" y2="146" stroke="#ea580c" stroke-width="1" marker-end="url(#arrow-ea580c)"/>
  <rect x="330" y="146" width="130" height="24" rx="6" fill="#1e1b4b" stroke="#7c3aed" stroke-width="1"/>
  <text x="395" y="161" font-size="10" fill="#a855f7" text-anchor="middle">Unique MoW</text>
  <text x="395" y="180" font-size="8" fill="#94a3b8" text-anchor="middle">查询延迟敏感</text>
  <rect x="480" y="146" width="130" height="24" rx="6" fill="#1e1b4b" stroke="#7c3aed" stroke-width="1"/>
  <text x="545" y="161" font-size="10" fill="#a855f7" text-anchor="middle">Unique MoR</text>
  <text x="545" y="180" font-size="8" fill="#94a3b8" text-anchor="middle">写入吞吐优先</text>
</svg>