<?xml version="1.0" encoding="UTF-8"?>
<svg xmlns="http://www.w3.org/2000/svg" viewBox="0 0 650 180" width="650" height="180">
  <defs>
    <marker id="arrow-dor5" markerWidth="8" markerHeight="6" refX="8" refY="3" orient="auto">
      <path d="M0,0 L8,3 L0,6 Z" fill="currentColor"/>
    </marker>
  </defs>
  <rect x="220" y="5" width="200" height="30" rx="15" fill="transparent" stroke="currentColor" stroke-width="1.5"/>
  <text x="320" y="20" font-family="sans-serif" font-size="12" fill="currentColor" text-anchor="middle" dominant-baseline="middle">写入模式是 Append-only？</text>
  <line x1="320" y1="35" x2="320" y2="50" stroke="currentColor" stroke-width="1.5"/>
  <line x1="180" y1="50" x2="460" y2="50" stroke="currentColor" stroke-width="1.5"/>
  <line x1="180" y1="50" x2="180" y2="65" stroke="currentColor" stroke-width="1.5"/>
  <line x1="460" y1="50" x2="460" y2="65" stroke="currentColor" stroke-width="1.5"/>
  <rect x="90" y="65" width="180" height="30" rx="15" fill="transparent" stroke="currentColor" stroke-width="1.2"/>
  <text x="180" y="80" font-family="sans-serif" font-size="12" fill="currentColor" text-anchor="middle" dominant-baseline="middle">需要聚合？</text>
  <line x1="180" y1="95" x2="180" y2="110" stroke="currentColor" stroke-width="1.2"/>
  <line x1="80" y1="110" x2="280" y2="110" stroke="currentColor" stroke-width="1.2"/>
  <line x1="80" y1="110" x2="80" y2="128" stroke="currentColor" stroke-width="1.2"/>
  <line x1="280" y1="110" x2="280" y2="128" stroke="currentColor" stroke-width="1.2"/>
  <rect x="8" y="128" width="150" height="28" rx="6" fill="transparent" stroke="currentColor" stroke-width="1"/>
  <text x="83" y="142" font-family="sans-serif" font-size="12" fill="currentColor" text-anchor="middle" dominant-baseline="middle">✅ Aggregate 模型</text>
  <rect x="200" y="128" width="150" height="28" rx="6" fill="transparent" stroke="currentColor" stroke-width="1"/>
  <text x="275" y="142" font-family="sans-serif" font-size="12" fill="currentColor" text-anchor="middle" dominant-baseline="middle">✅ Duplicate 模型</text>
  <rect x="395" y="65" width="210" height="30" rx="15" fill="transparent" stroke="currentColor" stroke-width="1.2"/>
  <text x="500" y="80" font-family="sans-serif" font-size="12" fill="currentColor" text-anchor="middle" dominant-baseline="middle">需要 UPSERT 主键更新？</text>
  <line x1="500" y1="95" x2="500" y2="110" stroke="currentColor" stroke-width="1.2"/>
  <line x1="420" y1="110" x2="580" y2="110" stroke="currentColor" stroke-width="1.2"/>
  <line x1="420" y1="110" x2="420" y2="128" stroke="currentColor" stroke-width="1.2"/>
  <line x1="580" y1="110" x2="580" y2="128" stroke="currentColor" stroke-width="1.2"/>
  <rect x="365" y="128" width="140" height="28" rx="6" fill="transparent" stroke="currentColor" stroke-width="1"/>
  <text x="435" y="142" font-family="sans-serif" font-size="11" fill="currentColor" text-anchor="middle" dominant-baseline="middle">Unique MoW</text>
  <text x="465" y="155" font-family="sans-serif" font-size="10" fill="currentColor" text-anchor="start" dominant-baseline="middle" font-style="italic">查询延迟敏感</text>
  <rect x="520" y="128" width="130" height="28" rx="6" fill="transparent" stroke="currentColor" stroke-width="1"/>
  <text x="585" y="142" font-family="sans-serif" font-size="11" fill="currentColor" text-anchor="middle" dominant-baseline="middle">Unique MoR</text>
  <text x="580" y="155" font-family="sans-serif" font-size="10" fill="currentColor" text-anchor="start" dominant-baseline="middle" font-style="italic">写入吞吐优先</text>
</svg>