<svg xmlns="http://www.w3.org/2000/svg" viewBox="0 0 680 200" width="680" height="200">
  <style>
    text { font-family: 'SF Mono', 'Fira Code', 'Cascadia Code', 'Courier New', 'Microsoft YaHei', 'SimHei', monospace; }
  </style>
  <defs>
    <linearGradient id="bg-grad" x1="0%" y1="0%" x2="100%" y2="100%">
      <stop offset="0%" stop-color="#0f0f1a"/>
      <stop offset="100%" stop-color="#1a1a2e"/>
    </linearGradient>
    <marker id="arrow-blue" markerWidth="8" markerHeight="6" refX="7" refY="3" orient="auto" markerUnits="userSpaceOnUse" overflow="visible">
      <polygon points="0 0, 8 3, 0 6" fill="#3b82f6"/>
    </marker>
    <marker id="arrow-orange" markerWidth="6" markerHeight="8" refX="3" refY="8" orient="auto" markerUnits="userSpaceOnUse" overflow="visible">
      <polygon points="0 0, 3 8, 6 0" fill="#f97316"/>
    </marker>
  </defs>
  <rect width="680" height="200" fill="url(#bg-grad)"/>
  <text x="340" y="16" font-size="14" font-weight="bold" fill="#e2e8f0" text-anchor="middle">Doris MPP 架构 — 查询执行流水线</text>
  <rect x="200" y="28" width="280" height="26" rx="4" fill="#1e3a5f" stroke="#3b82f6" stroke-width="1"/>
  <text x="340" y="44" font-size="11" fill="#e2e8f0" text-anchor="middle">Client (MySQL / HTTP / Arrow Flight)</text>
  <line x1="340" y1="54" x2="340" y2="68" stroke="#f97316" stroke-width="1.5" marker-end="url(#arrow-orange)"/>
  <text x="50" y="82" font-size="12" font-weight="bold" fill="#a855f7" text-anchor="end">FE:</text>
  <rect x="110" y="70" width="68" height="24" rx="4" fill="#1e1b4b" stroke="#7c3aed" stroke-width="1"/>
  <text x="144" y="84" font-size="11" fill="#e2e8f0" text-anchor="middle">SQL Parser</text>
  <rect x="188" y="70" width="58" height="24" rx="4" fill="#1e1b4b" stroke="#7c3aed" stroke-width="1"/>
  <text x="217" y="84" font-size="11" fill="#e2e8f0" text-anchor="middle">Analyzer</text>
  <rect x="256" y="70" width="64" height="24" rx="4" fill="#1e1b4b" stroke="#7c3aed" stroke-width="1"/>
  <text x="288" y="84" font-size="11" fill="#e2e8f0" text-anchor="middle">Optimizer</text>
  <rect x="330" y="70" width="74" height="24" rx="4" fill="#1e1b4b" stroke="#7c3aed" stroke-width="1"/>
  <text x="367" y="84" font-size="11" fill="#e2e8f0" text-anchor="middle">Coordinator</text>
  <rect x="414" y="70" width="78" height="24" rx="4" fill="#1e1b4b" stroke="#7c3aed" stroke-width="1"/>
  <text x="453" y="84" font-size="11" fill="#e2e8f0" text-anchor="middle">Result Merger</text>
  <line x1="178" y1="82" x2="186" y2="82" stroke="#3b82f6" stroke-width="1.2" marker-end="url(#arrow-blue)"/>
  <line x1="246" y1="82" x2="254" y2="82" stroke="#3b82f6" stroke-width="1.2" marker-end="url(#arrow-blue)"/>
  <line x1="320" y1="82" x2="328" y2="82" stroke="#3b82f6" stroke-width="1.2" marker-end="url(#arrow-blue)"/>
  <line x1="404" y1="82" x2="412" y2="82" stroke="#3b82f6" stroke-width="1.2" marker-end="url(#arrow-blue)"/>
  <line x1="340" y1="94" x2="340" y2="112" stroke="#f97316" stroke-width="1.5" marker-end="url(#arrow-orange)"/>
  <text x="348" y="106" font-size="9" fill="#94a3b8">Plan Fragments</text>
  <text x="40" y="130" font-size="12" font-weight="bold" fill="#10b981" text-anchor="end">BE:</text>
  <rect x="55" y="118" width="52" height="24" rx="4" fill="#052e16" stroke="#059669" stroke-width="1"/>
  <text x="81" y="132" font-size="11" fill="#e2e8f0" text-anchor="middle">Scan</text>
  <rect x="117" y="118" width="48" height="24" rx="4" fill="#052e16" stroke="#059669" stroke-width="1"/>
  <text x="141" y="132" font-size="11" fill="#e2e8f0" text-anchor="middle">Filter</text>
  <rect x="175" y="118" width="42" height="24" rx="4" fill="#052e16" stroke="#059669" stroke-width="1"/>
  <text x="196" y="132" font-size="11" fill="#e2e8f0" text-anchor="middle">Join</text>
  <rect x="227" y="118" width="40" height="24" rx="4" fill="#052e16" stroke="#059669" stroke-width="1"/>
  <text x="247" y="132" font-size="11" fill="#e2e8f0" text-anchor="middle">Agg</text>
  <rect x="277" y="118" width="42" height="24" rx="4" fill="#052e16" stroke="#059669" stroke-width="1"/>
  <text x="298" y="132" font-size="11" fill="#e2e8f0" text-anchor="middle">Sort</text>
  <rect x="329" y="118" width="42" height="24" rx="4" fill="#052e16" stroke="#059669" stroke-width="1"/>
  <text x="350" y="132" font-size="11" fill="#e2e8f0" text-anchor="middle">Sink</text>
  <line x1="107" y1="130" x2="115" y2="130" stroke="#3b82f6" stroke-width="1.2" marker-end="url(#arrow-blue)"/>
  <line x1="165" y1="130" x2="173" y2="130" stroke="#3b82f6" stroke-width="1.2" marker-end="url(#arrow-blue)"/>
  <line x1="217" y1="130" x2="225" y2="130" stroke="#3b82f6" stroke-width="1.2" marker-end="url(#arrow-blue)"/>
  <line x1="267" y1="130" x2="275" y2="130" stroke="#3b82f6" stroke-width="1.2" marker-end="url(#arrow-blue)"/>
  <line x1="319" y1="130" x2="327" y2="130" stroke="#3b82f6" stroke-width="1.2" marker-end="url(#arrow-blue)"/>
  <line x1="340" y1="142" x2="340" y2="158" stroke="#f97316" stroke-width="1.2" marker-end="url(#arrow-orange)"/>
  <rect x="220" y="160" width="240" height="24" rx="4" fill="#1c1917" stroke="#ea580c" stroke-width="1"/>
  <text x="340" y="175" font-size="11" fill="#f97316" text-anchor="middle">向量化引擎 (4096行/Batch, SIMD)</text>
</svg>