<?xml version="1.0" encoding="UTF-8"?>
<svg viewBox="0 0 650 60" xmlns="http://www.w3.org/2000/svg" style="max-width:100%">
  <defs>
    <marker id="arrow-vec" markerWidth="8" markerHeight="6" refX="8" refY="3" orient="auto">
      <path d="M0,0 L8,3 L0,6 Z" fill="currentColor"/>
    </marker>
  </defs>
  <!-- Operator chain -->
  <rect x="10" y="8" width="55" height="26" rx="4" fill="transparent" stroke="currentColor" stroke-width="1.5"/>
  <text x="37" y="23" font-family="sans-serif" font-size="12" fill="currentColor" text-anchor="middle" dominant-baseline="middle">Scan</text>
  <line x1="65" y1="21" x2="78" y2="21" stroke="currentColor" stroke-width="1.8" marker-end="url(#arrow-vec)"/>
  <rect x="80" y="8" width="55" height="26" rx="4" fill="transparent" stroke="currentColor" stroke-width="1.5"/>
  <text x="107" y="23" font-family="sans-serif" font-size="12" fill="currentColor" text-anchor="middle" dominant-baseline="middle">Filter</text>
  <line x1="135" y1="21" x2="148" y2="21" stroke="currentColor" stroke-width="1.8" marker-end="url(#arrow-vec)"/>
  <rect x="150" y="8" width="60" height="26" rx="4" fill="transparent" stroke="currentColor" stroke-width="1.5"/>
  <text x="180" y="23" font-family="sans-serif" font-size="12" fill="currentColor" text-anchor="middle" dominant-baseline="middle">Project</text>
  <line x1="210" y1="21" x2="223" y2="21" stroke="currentColor" stroke-width="1.8" marker-end="url(#arrow-vec)"/>
  <rect x="225" y="8" width="55" height="26" rx="4" fill="transparent" stroke="currentColor" stroke-width="1.5"/>
  <text x="252" y="23" font-family="sans-serif" font-size="12" fill="currentColor" text-anchor="middle" dominant-baseline="middle">Join</text>
  <line x1="280" y1="21" x2="293" y2="21" stroke="currentColor" stroke-width="1.8" marker-end="url(#arrow-vec)"/>
  <rect x="295" y="8" width="50" height="26" rx="4" fill="transparent" stroke="currentColor" stroke-width="1.5"/>
  <text x="320" y="23" font-family="sans-serif" font-size="12" fill="currentColor" text-anchor="middle" dominant-baseline="middle">Agg</text>
  <line x1="345" y1="21" x2="358" y2="21" stroke="currentColor" stroke-width="1.8" marker-end="url(#arrow-vec)"/>
  <rect x="360" y="8" width="50" height="26" rx="4" fill="transparent" stroke="currentColor" stroke-width="1.5"/>
  <text x="385" y="23" font-family="sans-serif" font-size="12" fill="currentColor" text-anchor="middle" dominant-baseline="middle">Sort</text>
  <line x1="410" y1="21" x2="423" y2="21" stroke="currentColor" stroke-width="1.8" marker-end="url(#arrow-vec)"/>
  <rect x="425" y="8" width="55" height="26" rx="4" fill="transparent" stroke="currentColor" stroke-width="1.5"/>
  <text x="452" y="23" font-family="sans-serif" font-size="12" fill="currentColor" text-anchor="middle" dominant-baseline="middle">Sink</text>
  
  <!-- Upward labels -->
  <text x="107" y="48" font-family="sans-serif" font-size="10" fill="currentColor" text-anchor="middle">SIMD (SSE/AVX2)</text>
  <line x1="107" y1="34" x2="107" y2="42" stroke="currentColor" stroke-width="1.2" marker-end="url(#arrow-vec)"/>
  <text x="450" y="48" font-family="sans-serif" font-size="10" fill="currentColor" text-anchor="middle">内存池管理（避免碎片）</text>
  <line x1="340" y1="34" x2="340" y2="42" stroke="currentColor" stroke-width="1.2" marker-end="url(#arrow-vec)"/>
</svg>