<?xml version="1.0" encoding="UTF-8"?>
<svg viewBox="0 0 750 140" xmlns="http://www.w3.org/2000/svg" style="max-width:100%;height:auto">
  <defs>
    <marker id="a3" markerWidth="8" markerHeight="6" refX="8" refY="3" orient="auto">
      <path d="M0,0 L8,3 L0,6 Z" fill="currentColor"/>
    </marker>
  </defs>
  <style>
    text { font-family: sans-serif; font-size: 13px; fill: currentColor; dominant-baseline: middle; text-anchor: middle; }
    .dim { font-size: 11px; opacity: 0.7; }
  </style>

  <!-- 1. BEGIN Txn -->
  <rect x="10" y="10" width="130" height="40" rx="4" fill="transparent" stroke="currentColor"/>
  <text x="75" y="30" font-size="12">1. BEGIN Txn</text>

  <line x1="140" y1="30" x2="168" y2="30" stroke="currentColor" stroke-width="1.5" marker-end="url(#a3)"/>

  <!-- 2. PREPARE -->
  <rect x="172" y="10" width="130" height="40" rx="4" fill="transparent" stroke="currentColor"/>
  <text x="237" y="30" font-size="12">2. PREPARE</text>

  <line x1="302" y1="30" x2="330" y2="30" stroke="currentColor" stroke-width="1.5" marker-end="url(#a3)"/>

  <!-- 3. COMMIT -->
  <rect x="334" y="10" width="100" height="40" rx="4" fill="transparent" stroke="currentColor"/>
  <text x="384" y="30" font-size="12">3. COMMIT</text>

  <line x1="434" y1="30" x2="462" y2="30" stroke="currentColor" stroke-width="1.5" marker-end="url(#a3)"/>

  <!-- 4. PUBLISH -->
  <rect x="466" y="10" width="110" height="40" rx="4" fill="transparent" stroke="currentColor"/>
  <text x="521" y="30" font-size="12">4. PUBLISH</text>

  <line x1="576" y1="30" x2="604" y2="30" stroke="currentColor" stroke-width="1.5" marker-end="url(#a3)"/>

  <!-- 5. TabletScheduler -->
  <rect x="608" y="10" width="130" height="40" rx="4" fill="transparent" stroke="currentColor"/>
  <text x="673" y="30" font-size="12">5. TabletScheduler</text>

  <!-- Details below -->
  <text x="75" y="68" class="dim">生成事务ID</text>
  <text x="237" y="68" class="dim">所有BE写入本地WAL</text>
  <text x="384" y="68" class="dim">全部成功则提交</text>
  <text x="521" y="68" class="dim">版本号递增，查询可见</text>
  <text x="673" y="68" class="dim">异步修复失败Replica</text>

  <!-- Failure annotations -->
  <text x="75" y="92" class="dim" font-size="10">—</text>
  <text x="237" y="92" class="dim" font-size="10">任一失败则ABORT</text>
  <text x="384" y="92" class="dim" font-size="10">—</text>
  <text x="521" y="92" class="dim" font-size="10">—</text>
  <text x="673" y="92" class="dim" font-size="10">—</text>
</svg>