<?xml version="1.0" encoding="UTF-8"?>
<svg xmlns="http://www.w3.org/2000/svg" viewBox="0 0 700 180" width="700" height="180">
  <defs>
    <marker id="arrow-eh1" markerWidth="8" markerHeight="6" refX="8" refY="3" orient="auto">
      <path d="M0,0 L8,3 L0,6 Z" fill="currentColor"/>
    </marker>
    <marker id="arrow-eh2" markerWidth="8" markerHeight="6" refX="8" refY="3" orient="auto">
      <path d="M0,0 L8,3 L0,6 Z" fill="currentColor"/>
    </marker>
    <marker id="arrow-eh3" markerWidth="8" markerHeight="6" refX="8" refY="3" orient="auto">
      <path d="M0,0 L8,3 L0,6 Z" fill="currentColor"/>
    </marker>
  </defs>
  <!-- new_bid box -->
  <rect x="40" y="60" width="230" height="40" rx="6" fill="transparent" stroke="currentColor" stroke-width="1.5"/>
  <text x="155" y="80" font-family="sans-serif" font-size="13" fill="currentColor" text-anchor="middle" dominant-baseline="middle">new_bid</text>
  <!-- close_auction box -->
  <rect x="420" y="60" width="240" height="40" rx="6" fill="transparent" stroke="currentColor" stroke-width="1.5"/>
  <text x="540" y="80" font-family="sans-serif" font-size="13" fill="currentColor" text-anchor="middle" dominant-baseline="middle">close_auction</text>
  <!-- new_bid (self loop box) -->
  <rect x="40" y="130" width="230" height="40" rx="6" fill="transparent" stroke="currentColor" stroke-width="1.5"/>
  <text x="155" y="150" font-family="sans-serif" font-size="13" fill="currentColor" text-anchor="middle" dominant-baseline="middle">new_bid</text>
  <!-- Arrow 1: new_bid --> close_auction -->
  <line x1="270" y1="80" x2="410" y2="80" stroke="currentColor" stroke-width="1.5" marker-end="url(#arrow-eh1)"/>
  <text x="340" y="72" font-family="sans-serif" font-size="11" fill="currentColor" text-anchor="middle" dominant-baseline="middle">eventually ordered</text>
  <!-- Arrow 2: new_bid (self) with curve -->
  <path d="M270,150 Q320,150 320,130 Q320,110 270,110" fill="none" stroke="currentColor" stroke-width="1.5" marker-end="url(#arrow-eh2)"/>
  <text x="338" y="130" font-family="sans-serif" font-size="11" fill="currentColor" text-anchor="middle" dominant-baseline="middle">commutative</text>
  <!-- Arrow 3: close_auction --> new_bid (dashed, no dep) -->
  <line x1="420" y1="75" x2="280" y2="145" stroke="currentColor" stroke-width="1.5" stroke-dasharray="5,4" marker-end="url(#arrow-eh3)"/>
  <text x="370" y="130" font-family="sans-serif" font-size="11" fill="currentColor" text-anchor="middle" dominant-baseline="middle">no dep</text>
  <text x="390" y="150" font-family="sans-serif" font-size="11" fill="currentColor" text-anchor="middle" font-weight="bold">← 非对称！</text>
</svg>