<?xml version="1.0" encoding="UTF-8"?>
<svg xmlns="http://www.w3.org/2000/svg" viewBox="0 0 700 180" width="700" height="180">
  <style>
    text { font-family: 'SF Mono','Fira Code','Cascadia Code','Courier New','Microsoft YaHei','SimHei',monospace; fill: #e2e8f0; }
  </style>
  <defs>
    <linearGradient id="bg-grad" x1="0%" y1="0%" x2="100%" y2="100%">
      <stop offset="0%" stop-color="#0f0f1a"/>
      <stop offset="100%" stop-color="#1a1a2e"/>
    </linearGradient>
    <marker id="arrow-comm" markerWidth="8" markerHeight="6" refX="8" refY="3" orient="auto">
      <path d="M0,0 L8,3 L0,6 Z" fill="#10b981"/>
    </marker>
    <marker id="arrow-order" markerWidth="8" markerHeight="6" refX="8" refY="3" orient="auto">
      <path d="M0,0 L8,3 L0,6 Z" fill="#f97316"/>
    </marker>
    <marker id="arrow-nodep" markerWidth="8" markerHeight="6" refX="8" refY="3" orient="auto">
      <path d="M0,0 L8,3 L0,6 Z" fill="#475569"/>
    </marker>
  </defs>
  <rect width="700" height="180" fill="url(#bg-grad)"/>
  <text x="350" y="25" font-family="'SF Mono','Fira Code','Microsoft YaHei',monospace" font-size="14" font-weight="700" fill="#e2e8f0" text-anchor="middle">非对称依赖有向图</text>
  <rect x="40" y="45" width="230" height="40" rx="6" fill="#052e16" stroke="#059669" stroke-width="1.5"/>
  <text x="155" y="70" font-size="13" fill="#e2e8f0" text-anchor="middle">new_bid</text>
  <rect x="420" y="45" width="240" height="40" rx="6" fill="#1c1917" stroke="#ea580c" stroke-width="1.5"/>
  <text x="540" y="70" font-size="13" fill="#e2e8f0" text-anchor="middle">close_auction</text>
  <rect x="40" y="125" width="230" height="40" rx="6" fill="#052e16" stroke="#059669" stroke-width="1.5"/>
  <text x="155" y="150" font-size="13" fill="#e2e8f0" text-anchor="middle">new_bid</text>
  <line x1="270" y1="65" x2="412" y2="65" stroke="#f97316" stroke-width="1.5" marker-end="url(#arrow-order)"/>
  <text x="341" y="58" font-size="10" fill="#f97316" text-anchor="middle">eventually ordered</text>
  <path d="M270,145 Q320,145 320,125 Q320,105 270,105" fill="none" stroke="#10b981" stroke-width="1.5" marker-end="url(#arrow-comm)"/>
  <text x="338" y="128" font-size="10" fill="#10b981" text-anchor="middle">commutative</text>
  <line x1="420" y1="60" x2="280" y2="140" stroke="#475569" stroke-width="1.2" stroke-dasharray="5,4" marker-end="url(#arrow-nodep)"/>
  <text x="375" y="118" font-size="10" fill="#475569" text-anchor="middle">no dep</text>
  <text x="395" y="140" font-size="10" fill="#f97316" text-anchor="middle" font-weight="700">← 非对称！</text>
</svg>