<svg xmlns="http://www.w3.org/2000/svg" viewBox="0 0 680 200" width="680" height="200">
<defs>
  <linearGradient id="bg-grad" x1="0%" y1="0%" x2="100%" y2="100%"><stop offset="0%" stop-color="#0f0f1a"/><stop offset="100%" stop-color="#1a1a2e"/></linearGradient>
  <marker id="arr" markerWidth="8" markerHeight="6" refX="7" refY="3" orient="auto"><polygon points="0 0, 8 3, 0 6" fill="#a855f7"/></marker>
</defs>
<style>text{font-family:'SF Mono','Fira Code','Cascadia Code','Courier New','Microsoft YaHei','SimHei',monospace}</style>
<rect width="680" height="200" fill="url(#bg-grad)"/>
<text x="10" y="18" font-size="13" fill="#e2e8f0" font-weight="bold">Tiering 工作流:</text>
<rect x="30" y="28" width="340" height="26" rx="6" fill="#0f172a" stroke="#334155" stroke-width="1"/>
<text x="200" y="46" font-size="11" fill="#e2e8f0" text-anchor="middle">CoordinatorServer</text>
<line x1="370" y1="41" x2="388" y2="41" stroke="#a855f7" stroke-width="1.5" marker-end="url(#arr)"/>
<rect x="30" y="58" width="340" height="26" rx="6" fill="#1e1b4b" stroke="#a855f7" stroke-width="0.8"/>
<text x="200" y="76" font-size="11" fill="#c084fc" text-anchor="middle">LakeTableTieringManager 调度任务</text>
<line x1="370" y1="71" x2="388" y2="71" stroke="#a855f7" stroke-width="1.5" marker-end="url(#arr)"/>
<rect x="30" y="88" width="340" height="26" rx="6" fill="#0f172a" stroke="#334155" stroke-width="1"/>
<text x="200" y="106" font-size="10" fill="#e2e8f0" text-anchor="middle">TieringSource（Flink Source，读本地数据）</text>
<line x1="370" y1="101" x2="388" y2="101" stroke="#a855f7" stroke-width="1.5" marker-end="url(#arr)"/>
<rect x="30" y="118" width="340" height="26" rx="6" fill="#0f172a" stroke="#334155" stroke-width="1"/>
<text x="200" y="136" font-size="10" fill="#e2e8f0" text-anchor="middle">LakeWriter（写入 Lake: Iceberg/Paimon/Hudi/Lance）</text>
<line x1="370" y1="131" x2="388" y2="131" stroke="#a855f7" stroke-width="1.5" marker-end="url(#arr)"/>
<rect x="30" y="148" width="340" height="26" rx="6" fill="#0f172a" stroke="#334155" stroke-width="1"/>
<text x="200" y="166" font-size="11" fill="#e2e8f0" text-anchor="middle">TieringCommitter（提交 Snapshot）</text>
<line x1="370" y1="161" x2="388" y2="161" stroke="#a855f7" stroke-width="1.5" marker-end="url(#arr)"/>
<rect x="30" y="178" width="340" height="26" rx="6" fill="#1e1b4b" stroke="#a855f7" stroke-width="0.8"/>
<text x="200" y="196" font-size="10" fill="#c084fc" text-anchor="middle">Coordinator.commitLakeTableSnapshot</text>
</svg>