<?xml version="1.0" encoding="UTF-8"?>
<svg viewBox="0 0 780 130" xmlns="http://www.w3.org/2000/svg" style="max-width:100%;height:auto">
  <defs>
    <marker id="a3" markerWidth="8" markerHeight="6" refX="8" refY="3" orient="auto">
      <path d="M0,0 L8,3 L0,6 Z" fill="currentColor"/>
    </marker>
  </defs>
  <style>
    text { font-family: sans-serif; font-size: 13px; fill: currentColor; dominant-baseline: middle; text-anchor: middle; }
  </style>
  <text x="10" y="15" font-size="12" text-anchor="start">INSERT INTO fluss_table SELECT ...</text>

  <rect x="10" y="35" width="110" height="30" rx="4" fill="transparent" stroke="currentColor"/>
  <text x="65" y="55" font-size="12">FlussSink</text>

  <line x1="120" y1="50" x2="145" y2="50" stroke="currentColor" stroke-width="1.5" marker-end="url(#a3)"/>

  <rect x="150" y="30" width="160" height="40" rx="4" fill="transparent" stroke="currentColor"/>
  <text x="230" y="45" font-size="12">SinkWriter</text>
  <text x="230" y="62" font-size="11">(pre-commit → commit cycle)</text>

  <line x1="310" y1="50" x2="335" y2="50" stroke="currentColor" stroke-width="1.5" marker-end="url(#a3)"/>

  <rect x="340" y="35" width="140" height="30" rx="4" fill="transparent" stroke="currentColor"/>
  <text x="410" y="55" font-size="12">RecordAccumulator</text>
  <text x="410" y="70" font-size="10" opacity="0.7">(batch buffer)</text>

  <line x1="480" y1="50" x2="505" y2="50" stroke="currentColor" stroke-width="1.5" marker-end="url(#a3)"/>

  <rect x="510" y="25" width="130" height="45" rx="4" fill="transparent" stroke="currentColor"/>
  <text x="575" y="40" font-size="12">AppendWriter</text>
  <text x="575" y="55" font-size="12">/ UpsertWriter</text>

  <line x1="640" y1="50" x2="665" y2="50" stroke="currentColor" stroke-width="1.5" marker-end="url(#a3)"/>

  <rect x="670" y="35" width="100" height="30" rx="4" fill="transparent" stroke="currentColor"/>
  <text x="720" y="55" font-size="12">TabletServer</text>
  <text x="720" y="72" font-size="10" opacity="0.7">(ProduceLog / PutKv)</text>
</svg>