<svg xmlns="http://www.w3.org/2000/svg" viewBox="0 0 700 170" width="700" height="170">
<defs>
  <linearGradient id="bg-grad" x1="0%" y1="0%" x2="100%" y2="100%"><stop offset="0%" stop-color="#0f0f1a"/><stop offset="100%" stop-color="#1a1a2e"/></linearGradient>
</defs>
<style>text{font-family:'SF Mono','Fira Code','Cascadia Code','Courier New','Microsoft YaHei','SimHei',monospace}</style>
<rect width="700" height="170" fill="url(#bg-grad)"/>
<rect x="10" y="5" width="160" height="28" rx="6" fill="#1e3a5f" stroke="#3b82f6" stroke-width="1"/>
<text x="90" y="24" font-size="12" fill="#60a5fa" text-anchor="middle" font-weight="bold">KvManager（全局入口）</text>
<line x1="90" y1="33" x2="90" y2="44" stroke="#94a3b8" stroke-width="1"/>
<text x="110" y="46" font-size="11" fill="#e2e8f0">→ KvTablet（单 bucket 的 KV 管理单元）</text>
<line x1="50" y1="60" x2="690" y2="60" stroke="#334155" stroke-width="1"/>
<line x1="50" y1="60" x2="50" y2="72" stroke="#334155" stroke-width="1"/>
<line x1="160" y1="60" x2="160" y2="72" stroke="#334155" stroke-width="1"/>
<line x1="280" y1="60" x2="280" y2="72" stroke="#334155" stroke-width="1"/>
<line x1="410" y1="60" x2="410" y2="72" stroke="#334155" stroke-width="1"/>
<line x1="530" y1="60" x2="530" y2="72" stroke="#334155" stroke-width="1"/>
<line x1="640" y1="60" x2="640" y2="72" stroke="#334155" stroke-width="1"/>
<text x="12" y="88" font-size="11" fill="#e2e8f0">├ RocksDBKv</text>
<text x="12" y="106" font-size="9" fill="#94a3b8" font-style="italic">　→ RocksDB 实例</text>
<text x="122" y="88" font-size="11" fill="#e2e8f0">├ WalBuilder</text>
<text x="122" y="106" font-size="9" fill="#94a3b8" font-style="italic">　（三种格式）</text>
<text x="240" y="88" font-size="11" fill="#e2e8f0">├ PeriodicSnapshotMgr</text>
<text x="240" y="106" font-size="9" fill="#94a3b8" font-style="italic">　（定时快照触发）</text>
<text x="370" y="88" font-size="11" fill="#e2e8f0">├ RowMerger</text>
<text x="370" y="106" font-size="9" fill="#94a3b8" font-style="italic">　（四种实现）</text>
<text x="490" y="88" font-size="11" fill="#e2e8f0">├ PartialUpdater</text>
<text x="490" y="106" font-size="9" fill="#94a3b8" font-style="italic">　（部分列更新）</text>
<text x="600" y="88" font-size="11" fill="#e2e8f0">├ AutoIncrMgr</text>
<text x="600" y="106" font-size="9" fill="#94a3b8" font-style="italic">　（自增 ID）</text>
<text x="665" y="88" font-size="10" fill="#64748b">└ Buf</text>
<text x="665" y="106" font-size="9" fill="#64748b" font-style="italic">　预写</text>
</svg>