<?xml version="1.0" encoding="UTF-8"?>
<svg viewBox="0 0 780 180" xmlns="http://www.w3.org/2000/svg" style="max-width:100%;height:auto">
  <defs>
    <marker id="a4" markerWidth="8" markerHeight="6" refX="8" refY="3" orient="auto">
      <path d="M0,0 L8,3 L0,6 Z" fill="currentColor"/>
    </marker>
      <marker id="arrow-currentColor" markerWidth="10" markerHeight="7" refX="9" refY="3.5" orient="auto">
      <polygon points="0 0, 10 3.5, 0 7" fill="currentColor"/>
    </marker>
  </defs>
  <style>
    text { font-family: sans-serif; font-size: 13px; fill: currentColor; dominant-baseline: middle; text-anchor: middle; }
  </style>
  <text x="10" y="18" font-size="12" text-anchor="start">SELECT * FROM fluss_table</text>

  <rect x="10" y="35" width="130" height="30" rx="4" fill="transparent" stroke="currentColor"/>
  <text x="75" y="55" font-size="12">FlussSource</text>

  <line x1="140" y1="50" x2="165" y2="50" stroke="currentColor" stroke-width="1.5" marker-end="url(#a4)"/>

  <rect x="170" y="30" width="180" height="40" rx="4" fill="transparent" stroke="currentColor"/>
  <text x="260" y="45" font-size="12">FlussSourceEnumerator</text>
  <text x="260" y="62" font-size="11">(split discovery)</text>

  <line x1="350" y1="55" x2="350" y2="80" stroke="currentColor" stroke-width="1.5" marker-end="url(#arrow-currentColor)"/>
  <line x1="250" y1="80" x2="450" y2="80" stroke="currentColor" stroke-width="1.5" marker-end="url(#arrow-currentColor)"/>

  <line x1="250" y1="80" x2="250" y2="95" stroke="currentColor" stroke-width="1.5" marker-end="url(#a4)"/>
  <rect x="180" y="100" width="140" height="24" rx="3" fill="transparent" stroke="currentColor"/>
  <text x="250" y="117" font-size="12">LogSplit</text>

  <line x1="350" y1="80" x2="350" y2="95" stroke="currentColor" stroke-width="1.5" marker-end="url(#a4)"/>
  <rect x="280" y="100" width="140" height="24" rx="3" fill="transparent" stroke="currentColor"/>
  <text x="350" y="117" font-size="12">KvSnapshotSplit</text>

  <line x1="450" y1="80" x2="450" y2="95" stroke="currentColor" stroke-width="1.5" marker-end="url(#a4)"/>
  <rect x="380" y="100" width="140" height="24" rx="3" fill="transparent" stroke="currentColor"/>
  <text x="450" y="117" font-size="12">LakeSplit</text>

  <line x1="250" y1="124" x2="250" y2="140" stroke="currentColor" stroke-width="1" stroke-dasharray="2,2"/>
  <line x1="350" y1="124" x2="350" y2="140" stroke="currentColor" stroke-width="1" stroke-dasharray="2,2"/>
  <line x1="450" y1="124" x2="450" y2="140" stroke="currentColor" stroke-width="1" stroke-dasharray="2,2"/>
  <line x1="250" y1="140" x2="450" y2="140" stroke="currentColor" stroke-width="1" marker-end="url(#arrow-currentColor)"/>
  <line x1="350" y1="140" x2="350" y2="155" stroke="currentColor" stroke-width="1.5" marker-end="url(#a4)"/>

  <rect x="275" y="160" width="150" height="24" rx="3" fill="transparent" stroke="currentColor"/>
  <text x="350" y="177" font-size="12">FlussSourceReader</text>
  <text x="350" y="192" font-size="11">→ FlussSplitReader</text>

  <rect x="525" y="100" width="150" height="24" rx="3" fill="transparent" stroke="currentColor"/>
  <text x="600" y="117" font-size="11">LogScanner (log split)</text>

  <rect x="525" y="130" width="150" height="24" rx="3" fill="transparent" stroke="currentColor"/>
  <text x="600" y="147" font-size="11">KvBatchScanner (snapshot split)</text>

  <rect x="525" y="160" width="170" height="24" rx="3" fill="transparent" stroke="currentColor"/>
  <text x="610" y="177" font-size="11">IcebergLakeSource / PaimonLakeSource</text>
  <text x="610" y="192" font-size="10" opacity="0.7">(lake split)</text>

  <line x1="450" y1="112" x2="520" y2="117" stroke="currentColor" stroke-width="1" stroke-dasharray="2,2" marker-end="url(#a4)"/>
  <line x1="450" y1="112" x2="520" y2="142" stroke="currentColor" stroke-width="1" stroke-dasharray="2,2" marker-end="url(#a4)"/>
  <line x1="450" y1="112" x2="530" y2="172" stroke="currentColor" stroke-width="1" stroke-dasharray="2,2" marker-end="url(#a4)"/>
</svg>