<?xml version="1.0" encoding="UTF-8"?>
<svg viewBox="0 0 780 520" xmlns="http://www.w3.org/2000/svg" style="max-width:100%;height:auto">
  <defs>
    <marker id="a1" markerWidth="8" markerHeight="6" refX="8" refY="3" orient="auto">
      <path d="M0,0 L8,3 L0,6 Z" fill="currentColor"/>
    </marker>
      <marker id="arrow-currentColor" markerWidth="10" markerHeight="7" refX="9" refY="3.5" orient="auto">
      <polygon points="0 0, 10 3.5, 0 7" fill="currentColor"/>
    </marker>
  </defs>
  <style>
    text { font-family: sans-serif; font-size: 13px; fill: currentColor; dominant-baseline: middle; text-anchor: middle; }
  </style>

  <!-- Root -->
  <rect x="280" y="10" width="200" height="36" rx="4" fill="transparent" stroke="currentColor" stroke-width="2"/>
  <text x="380" y="28" font-weight="bold" font-size="14">FlussTable</text>
  <text x="380" y="43" font-size="11">（统一表访问入口）</text>

  <!-- Vertical trunk -->
  <line x1="380" y1="46" x2="380" y2="70" stroke="currentColor" stroke-width="1.5" marker-end="url(#a1)"/>

  <!-- Horizontal trunk -->
  <line x1="380" y1="75" x2="380" y2="80" stroke="currentColor" stroke-width="1.5" marker-end="url(#arrow-currentColor)"/>
  <line x1="380" y1="80" x2="680" y2="80" stroke="currentColor" stroke-width="1.5" marker-end="url(#arrow-currentColor)"/>
  <line x1="380" y1="80" x2="100" y2="80" stroke="currentColor" stroke-width="1.5" marker-end="url(#arrow-currentColor)"/>

  <!-- Branch to Writer -->
  <line x1="100" y1="80" x2="100" y2="95" stroke="currentColor" stroke-width="1.5" marker-end="url(#a1)"/>
  <rect x="25" y="100" width="150" height="30" rx="4" fill="transparent" stroke="currentColor" stroke-width="1.5"/>
  <text x="100" y="120" font-weight="bold">Writer 层</text>

  <line x1="100" y1="130" x2="100" y2="145" stroke="currentColor" stroke-width="1.5" marker-end="url(#a1)"/>
  <rect x="10" y="150" width="180" height="24" rx="3" fill="transparent" stroke="currentColor"/>
  <text x="100" y="167" font-size="12">AppendWriter → 追加写入</text>
  <text x="100" y="182" font-size="10" opacity="0.7">（≈ KafkaProducer.send）</text>

  <line x1="100" y1="190" x2="100" y2="200" stroke="currentColor" stroke-width="1" stroke-dasharray="2,2"/>
  <rect x="10" y="205" width="180" height="24" rx="3" fill="transparent" stroke="currentColor"/>
  <text x="100" y="222" font-size="12">UpsertWriter → 写入/更新</text>
  <text x="100" y="237" font-size="10" opacity="0.7">（PK 表专用）</text>

  <line x1="100" y1="245" x2="100" y2="255" stroke="currentColor" stroke-width="1" stroke-dasharray="2,2"/>
  <rect x="10" y="260" width="180" height="24" rx="3" fill="transparent" stroke="currentColor"/>
  <text x="100" y="277" font-size="12">TableWriter&lt;T&gt; → 类型化写入器</text>

  <!-- Branch to Scanner -->
  <line x1="380" y1="80" x2="380" y2="95" stroke="currentColor" stroke-width="1.5" marker-end="url(#a1)"/>
  <rect x="305" y="100" width="150" height="30" rx="4" fill="transparent" stroke="currentColor" stroke-width="1.5"/>
  <text x="380" y="120" font-weight="bold">Scanner 层</text>

  <line x1="380" y1="130" x2="380" y2="145" stroke="currentColor" stroke-width="1.5" marker-end="url(#a1)"/>
  <rect x="290" y="150" width="180" height="24" rx="3" fill="transparent" stroke="currentColor"/>
  <text x="380" y="167" font-size="12">LogScanner → 顺序日志扫描</text>

  <line x1="380" y1="174" x2="380" y2="187" stroke="currentColor" stroke-width="1" stroke-dasharray="2,2"/>
  <rect x="290" y="192" width="180" height="24" rx="3" fill="transparent" stroke="currentColor"/>
  <text x="380" y="209" font-size="12">BatchScanner → 批量扫描</text>
  <text x="380" y="224" font-size="10" opacity="0.7">（快照 + 日志合并）</text>

  <line x1="380" y1="232" x2="380" y2="244" stroke="currentColor" stroke-width="1" marker-end="url(#arrow-currentColor)"/>
  <line x1="380" y1="244" x2="250" y2="244" stroke="currentColor" stroke-width="1" marker-end="url(#arrow-currentColor)"/>
  <line x1="250" y1="244" x2="250" y2="258" stroke="currentColor" stroke-width="1" marker-end="url(#a1)"/>
  <text x="250" y="275" font-size="11">KvBatchScanner</text>
  <text x="250" y="290" font-size="11">KvSnapshotBatchScanner</text>
  <text x="250" y="305" font-size="11">LimitBatchScanner</text>
  <text x="250" y="320" font-size="11">CompositeBatchScanner</text>

  <line x1="380" y1="244" x2="510" y2="244" stroke="currentColor" stroke-width="1" marker-end="url(#arrow-currentColor)"/>
  <line x1="510" y1="244" x2="510" y2="258" stroke="currentColor" stroke-width="1" marker-end="url(#a1)"/>
  <text x="510" y="275" font-size="11">RemoteLogDownloader</text>
  <text x="510" y="290" font-size="11">→ 远程日志透明下载</text>

  <!-- Branch to Lookuper -->
  <line x1="680" y1="80" x2="680" y2="95" stroke="currentColor" stroke-width="1.5" marker-end="url(#a1)"/>
  <rect x="605" y="100" width="150" height="30" rx="4" fill="transparent" stroke="currentColor" stroke-width="1.5"/>
  <text x="680" y="120" font-weight="bold">Lookuper 层</text>

  <line x1="680" y1="130" x2="680" y2="145" stroke="currentColor" stroke-width="1.5" marker-end="url(#a1)"/>
  <rect x="590" y="150" width="180" height="24" rx="3" fill="transparent" stroke="currentColor"/>
  <text x="680" y="167" font-size="12">PrimaryKeyLookuper → PK 精确查找</text>

  <line x1="680" y1="174" x2="680" y2="187" stroke="currentColor" stroke-width="1" stroke-dasharray="2,2"/>
  <rect x="590" y="192" width="180" height="24" rx="3" fill="transparent" stroke="currentColor"/>
  <text x="680" y="209" font-size="12">PrefixKeyLookuper → 前缀查找</text>
</svg>