<svg xmlns="http://www.w3.org/2000/svg" viewBox="0 0 700 190" width="700" height="190">
<defs>
  <linearGradient id="bg-grad" x1="0%" y1="0%" x2="100%" y2="100%"><stop offset="0%" stop-color="#0f0f1a"/><stop offset="100%" stop-color="#1a1a2e"/></linearGradient>
  <marker id="arr" markerWidth="8" markerHeight="6" refX="7" refY="3" orient="auto"><polygon points="0 0, 8 3, 0 6" fill="#94a3b8"/></marker>
</defs>
<style>text{font-family:'SF Mono','Fira Code','Cascadia Code','Courier New','Microsoft YaHei','SimHei',monospace}</style>
<rect width="700" height="190" fill="url(#bg-grad)"/>
<rect x="10" y="5" width="100" height="28" rx="6" fill="#1e3a5f" stroke="#3b82f6" stroke-width="0.8"/>
<text x="60" y="24" font-size="11" fill="#60a5fa" text-anchor="middle">KvManager</text>
<line x1="110" y1="19" x2="148" y2="19" stroke="#94a3b8" stroke-width="1.2" marker-end="url(#arr)"/>
<rect x="152" y="5" width="90" height="28" rx="6" fill="#052e16" stroke="#10b981" stroke-width="0.8"/>
<text x="197" y="24" font-size="11" fill="#34d399" text-anchor="middle">KvTablet</text>
<line x1="242" y1="19" x2="280" y2="19" stroke="#94a3b8" stroke-width="1.2" marker-end="url(#arr)"/>
<rect x="284" y="5" width="110" height="28" rx="6" fill="#1e1b4b" stroke="#a855f7" stroke-width="0.8"/>
<text x="339" y="24" font-size="12" fill="#c084fc" text-anchor="middle" font-weight="bold">RocksDBKv</text>
<line x1="339" y1="33" x2="339" y2="46" stroke="#94a3b8" stroke-width="1"/>
<line x1="100" y1="46" x2="520" y2="46" stroke="#334155" stroke-width="1"/>
<line x1="100" y1="46" x2="100" y2="60" stroke="#334155" stroke-width="1"/>
<line x1="220" y1="46" x2="220" y2="60" stroke="#334155" stroke-width="1"/>
<line x1="340" y1="46" x2="340" y2="60" stroke="#334155" stroke-width="1"/>
<line x1="460" y1="46" x2="460" y2="60" stroke="#334155" stroke-width="1"/>
<text x="108" y="76" font-size="11" fill="#e2e8f0">├ WalBuilder</text>
<text x="108" y="94" font-size="9" fill="#94a3b8" font-style="italic">　Arrow/Compacted/Indexed</text>
<text x="228" y="76" font-size="11" fill="#e2e8f0">├ SnapshotManager</text>
<text x="228" y="94" font-size="9" fill="#94a3b8" font-style="italic">　Periodic→RocksIncr→Uploader→Committer</text>
<text x="348" y="76" font-size="11" fill="#e2e8f0">├ RowMerger</text>
<text x="348" y="94" font-size="9" fill="#94a3b8" font-style="italic">　Default/FirstRow/Versioned/Aggregate</text>
<text x="468" y="76" font-size="11" fill="#e2e8f0">├ PartialUpdater</text>
<text x="468" y="100" font-size="11" fill="#e2e8f0">├ AutoIncrementManager</text>
<text x="468" y="124" font-size="11" fill="#e2e8f0">└ KvPreWriteBuffer</text>
<text x="460" y="148" font-size="9" fill="#64748b" font-style="italic">WAL 复用 Changelog LogTablet</text>
</svg>