<?xml version="1.0" encoding="UTF-8"?>
<svg xmlns="http://www.w3.org/2000/svg" viewBox="0 0 700 160" width="700" height="160">
  <defs>
    <marker id="arrow-fse1" markerWidth="8" markerHeight="6" refX="8" refY="3" orient="auto">
      <path d="M0,0 L8,3 L0,6 Z" fill="currentColor"/>
    </marker>
  </defs>
  <!-- ReplicaManager -->
  <rect x="20" y="10" width="140" height="34" rx="6" fill="transparent" stroke="currentColor" stroke-width="1.5"/>
  <text x="90" y="27" font-family="sans-serif" font-size="13" fill="currentColor" text-anchor="middle" dominant-baseline="middle" font-weight="bold">ReplicaManager</text>

  <!-- Line down from ReplicaManager -->
  <line x1="90" y1="44" x2="90" y2="60" stroke="currentColor" stroke-width="1.5"/>

  <!-- Branch lines -->
  <line x1="90" y1="60" x2="90" y2="62" stroke="currentColor" stroke-width="1.5"/>
  <line x1="90" y1="60" x2="34" y2="60" stroke="currentColor" stroke-width="1.5"/>
  <line x1="34" y1="60" x2="34" y2="80" stroke="currentColor" stroke-width="1.5"/>
  <line x1="90" y1="60" x2="90" y2="80" stroke="currentColor" stroke-width="1.5"/>
  <line x1="90" y1="60" x2="146" y2="60" stroke="currentColor" stroke-width="1.5"/>
  <line x1="146" y1="60" x2="146" y2="80" stroke="currentColor" stroke-width="1.5"/>

  <!-- LogManager -->
  <rect x="80" y="80" width="125" height="28" rx="5" fill="transparent" stroke="currentColor" stroke-width="1.2"/>
  <text x="142" y="94" font-family="sans-serif" font-size="12" fill="currentColor" text-anchor="middle" dominant-baseline="middle">LogManager</text>

  <!-- KvManager -->
  <rect x="4" y="80" width="125" height="28" rx="5" fill="transparent" stroke="currentColor" stroke-width="1.2"/>
  <text x="66" y="94" font-family="sans-serif" font-size="12" fill="currentColor" text-anchor="middle" dominant-baseline="middle">KvManager</text>

  <!-- RemoteLogManager -->
  <rect x="8" y="120" width="125" height="28" rx="5" fill="transparent" stroke="currentColor" stroke-width="1.2"/>
  <text x="70" y="134" font-family="sans-serif" font-size="12" fill="currentColor" text-anchor="middle" dominant-baseline="middle">RemoteLogManager</text>

  <!-- Arrows from LogManager -->
  <line x1="205" y1="88" x2="260" y2="88" stroke="currentColor" stroke-width="1.2" marker-end="url(#arrow-fse1)"/>
  <text x="230" y="81" font-family="sans-serif" font-size="10" fill="currentColor" text-anchor="middle" dominant-baseline="middle">→</text>
  <rect x="262" y="76" width="100" height="24" rx="4" fill="transparent" stroke="currentColor" stroke-width="1" stroke-dasharray="2,2"/>
  <text x="312" y="88" font-family="sans-serif" font-size="11" fill="currentColor" text-anchor="middle" dominant-baseline="middle">LogTablet</text>

  <line x1="362" y1="84" x2="390" y2="84" stroke="currentColor" stroke-width="1" marker-end="url(#arrow-fse1)"/>
  <rect x="392" y="74" width="95" height="22" rx="4" fill="transparent" stroke="currentColor" stroke-width="1" stroke-dasharray="2,2"/>
  <text x="440" y="85" font-family="sans-serif" font-size="10" fill="currentColor" text-anchor="middle" dominant-baseline="middle">LocalLog</text>

  <line x1="487" y1="80" x2="525" y2="80" stroke="currentColor" stroke-width="1" marker-end="url(#arrow-fse1)"/>
  <rect x="527" y="72" width="105" height="20" rx="4" fill="transparent" stroke="currentColor" stroke-width="1" stroke-dasharray="2,2"/>
  <text x="580" y="82" font-family="sans-serif" font-size="10" fill="currentColor" text-anchor="middle" dominant-baseline="middle">LogSegments</text>

  <line x1="632" y1="77" x2="655" y2="77" stroke="currentColor" stroke-width="1" marker-end="url(#arrow-fse1)"/>
  <rect x="630" y="65" width="70" height="20" rx="4" fill="transparent" stroke="currentColor" stroke-width="1" stroke-dasharray="2,2"/>
  <text x="665" y="75" font-family="sans-serif" font-size="10" fill="currentColor" text-anchor="middle" dominant-baseline="middle">LogSegment</text>

  <!-- KvManager details -->
  <line x1="129" y1="93" x2="200" y2="93" stroke="currentColor" stroke-width="1" marker-end="url(#arrow-fse1)"/>
  <rect x="202" y="80" width="110" height="24" rx="4" fill="transparent" stroke="currentColor" stroke-width="1" stroke-dasharray="2,2"/>
  <text x="257" y="92" font-family="sans-serif" font-size="11" fill="currentColor" text-anchor="middle" dominant-baseline="middle">KvTablet</text>

  <line x1="312" y1="88" x2="345" y2="88" stroke="currentColor" stroke-width="1" marker-end="url(#arrow-fse1)"/>
  <rect x="347" y="78" width="120" height="22" rx="4" fill="transparent" stroke="currentColor" stroke-width="1" stroke-dasharray="2,2"/>
  <text x="407" y="89" font-family="sans-serif" font-size="10" fill="currentColor" text-anchor="middle" dominant-baseline="middle">RocksDBKv</text>

  <!-- RemoteLogManager detail -->
  <line x1="133" y1="128" x2="170" y2="128" stroke="currentColor" stroke-width="1.2" marker-end="url(#arrow-fse1)"/>
  <text x="178" y="128" font-family="sans-serif" font-size="10" fill="currentColor" text-anchor="start" dominant-baseline="middle">→ S3 / HDFS / OSS</text>
</svg>