<svg xmlns="http://www.w3.org/2000/svg" viewBox="0 0 700 160" width="700" height="160">
<defs>
  <linearGradient id="bg-grad" x1="0%" y1="0%" x2="100%" y2="100%"><stop offset="0%" stop-color="#0f0f1a"/><stop offset="100%" stop-color="#1a1a2e"/></linearGradient>
  <marker id="arr" markerWidth="8" markerHeight="6" refX="7" refY="3" orient="auto"><polygon points="0 0, 8 3, 0 6" fill="#94a3b8"/></marker>
</defs>
<style>text{font-family:'SF Mono','Fira Code','Cascadia Code','Courier New','Microsoft YaHei','SimHei',monospace}</style>
<rect width="700" height="160" fill="url(#bg-grad)"/>
<rect x="20" y="5" width="140" height="32" rx="6" fill="#1e1b4b" stroke="#a855f7" stroke-width="1.2"/>
<text x="90" y="26" font-size="12" fill="#c084fc" text-anchor="middle" font-weight="bold">ReplicaManager</text>
<line x1="90" y1="37" x2="90" y2="52" stroke="#94a3b8" stroke-width="1.2"/>
<line x1="90" y1="52" x2="34" y2="52" stroke="#94a3b8" stroke-width="1.2"/>
<line x1="34" y1="52" x2="34" y2="72" stroke="#94a3b8" stroke-width="1.2"/>
<line x1="90" y1="52" x2="90" y2="72" stroke="#94a3b8" stroke-width="1.2"/>
<line x1="90" y1="52" x2="146" y2="52" stroke="#94a3b8" stroke-width="1.2"/>
<line x1="146" y1="52" x2="146" y2="72" stroke="#94a3b8" stroke-width="1.2"/>
<rect x="4" y="72" width="120" height="26" rx="4" fill="#052e16" stroke="#10b981" stroke-width="0.8"/>
<text x="64" y="90" font-size="11" fill="#34d399" text-anchor="middle">KvManager</text>
<rect x="80" y="72" width="120" height="26" rx="4" fill="#1e3a5f" stroke="#3b82f6" stroke-width="0.8"/>
<text x="140" y="90" font-size="11" fill="#60a5fa" text-anchor="middle">LogManager</text>
<rect x="8" y="110" width="120" height="24" rx="4" fill="#1e1b4b" stroke="#a855f7" stroke-width="0.8"/>
<text x="68" y="127" font-size="10" fill="#c084fc" text-anchor="middle">RemoteLogManager</text>
<!-- Log chain -->
<line x1="200" y1="82" x2="248" y2="82" stroke="#3b82f6" stroke-width="1" marker-end="url(#arr)"/>
<rect x="252" y="74" width="90" height="22" rx="4" fill="#1a1a2e" stroke="#334155" stroke-width="0.5"/>
<text x="297" y="90" font-size="10" fill="#94a3b8" text-anchor="middle">LogTablet</text>
<line x1="342" y1="82" x2="370" y2="82" stroke="#3b82f6" stroke-width="1" marker-end="url(#arr)"/>
<rect x="374" y="74" width="90" height="22" rx="4" fill="#1a1a2e" stroke="#334155" stroke-width="0.5"/>
<text x="419" y="90" font-size="10" fill="#94a3b8" text-anchor="middle">LocalLog</text>
<line x1="464" y1="82" x2="495" y2="82" stroke="#3b82f6" stroke-width="1" marker-end="url(#arr)"/>
<rect x="498" y="72" width="105" height="20" rx="4" fill="#1a1a2e" stroke="#334155" stroke-width="0.5"/>
<text x="550" y="87" font-size="9" fill="#64748b" text-anchor="middle">LogSegments</text>
<!-- Kv chain -->
<line x1="124" y1="84" x2="175" y2="84" stroke="#10b981" stroke-width="1" marker-end="url(#arr)"/>
<rect x="178" y="76" width="100" height="22" rx="4" fill="#1a1a2e" stroke="#334155" stroke-width="0.5"/>
<text x="228" y="92" font-size="10" fill="#94a3b8" text-anchor="middle">KvTablet</text>
<line x1="278" y1="84" x2="310" y2="84" stroke="#10b981" stroke-width="1" marker-end="url(#arr)"/>
<rect x="312" y="76" width="100" height="22" rx="4" fill="#1a1a2e" stroke="#334155" stroke-width="0.5"/>
<text x="362" y="92" font-size="10" fill="#94a3b8" text-anchor="middle">RocksDBKv</text>
<text x="170" y="140" font-size="9" fill="#64748b">S3/HDFS/OSS</text>
</svg>