<svg xmlns="http://www.w3.org/2000/svg" viewBox="0 0 650 110" width="650" height="110">
<defs>
  <linearGradient id="bg-grad" x1="0%" y1="0%" x2="100%" y2="100%"><stop offset="0%" stop-color="#0f0f1a"/><stop offset="100%" stop-color="#1a1a2e"/></linearGradient>
  <marker id="arr" markerWidth="8" markerHeight="6" refX="7" refY="3" orient="auto" markerUnits="userSpaceOnUse" overflow="visible"><polygon points="0 0, 8 3, 0 6" fill="#10b981"/></marker>
</defs>
<style>text{font-family:'SF Mono','Fira Code','Cascadia Code','Courier New','Microsoft YaHei','SimHei',monospace}</style>
<rect width="650" height="110" fill="url(#bg-grad)"/>
<rect x="10" y="6" width="140" height="24" rx="6" fill="#1a1a2e" stroke="#334155" stroke-width="0.8"/>
<text x="80" y="23" font-size="11" fill="#94a3b8" text-anchor="middle">NonExistentReplica</text>
<line x1="150" y1="18" x2="175" y2="18" stroke="#10b981" stroke-width="1.5" marker-end="url(#arr)"/>
<rect x="180" y="6" width="100" height="24" rx="6" fill="#052e16" stroke="#10b981" stroke-width="0.8"/>
<text x="230" y="23" font-size="11" fill="#34d399" text-anchor="middle">NewReplica</text>
<line x1="280" y1="18" x2="305" y2="18" stroke="#10b981" stroke-width="1.5" marker-end="url(#arr)"/>
<rect x="310" y="6" width="160" height="24" rx="6" fill="#052e16" stroke="#10b981" stroke-width="0.8"/>
<text x="390" y="23" font-size="10" fill="#34d399" text-anchor="middle">Online / Offline</text>
<line x1="390" y1="30" x2="390" y2="44" stroke="#ea580c" stroke-width="1.5" marker-end="url(#arr)"/>
<rect x="290" y="48" width="200" height="22" rx="6" fill="#1c1917" stroke="#ea580c" stroke-width="0.8"/>
<text x="390" y="64" font-size="10" fill="#f97316" text-anchor="middle">MigrationStarted → DeletionStarted</text>
<line x1="480" y1="59" x2="505" y2="59" stroke="#ef4444" stroke-width="1.5" marker-end="url(#arr)"/>
<rect x="420" y="82" width="150" height="22" rx="6" fill="#3b0a0a" stroke="#ef4444" stroke-width="0.8"/>
<text x="495" y="98" font-size="10" fill="#fca5a5" text-anchor="middle">DeletionSuccessful</text>
</svg>