<?xml version="1.0" encoding="UTF-8"?>
<svg viewBox="0 0 640 400" xmlns="http://www.w3.org/2000/svg">
  <defs>
    <marker id="ar1" markerWidth="8" markerHeight="6" refX="8" refY="3" orient="auto">
      <path d="M0,0 L8,3 L0,6 Z" fill="currentColor"/>
    </marker>
  </defs>
  <style>
    text { font-family: sans-serif; font-size: 12px; fill: currentColor; dominant-baseline: middle; }
    line, path { stroke: currentColor; stroke-width: 1.5; fill: none; }
    rect { fill: transparent; stroke: currentColor; stroke-width: 1.5; rx: 4; }
  </style>

  <!-- Namespace -->
  <rect x="260" y="10" width="140" height="28"/>
  <text x="330" y="24">Namespace (Database)</text>

  <!-- vertical line from Namespace down -->
  <line x1="330" y1="38" x2="330" y2="60" marker-end="url(#ar1)"/>

  <!-- Table -->
  <rect x="260" y="64" width="140" height="28"/>
  <text x="330" y="78">Table (Measurement)</text>

  <!-- horizontal branch from Table -->
  <line x1="280" y1="92" x2="280" y2="110"/>
  <line x1="280" y1="110" x2="180" y2="110"/>
  <line x1="380" y1="110" x2="380" y2="92"/>
  <line x1="180" y1="110" x2="180" y2="130"/>
  <line x1="380" y1="110" x2="380" y2="130"/>

  <!-- Column -->
  <rect x="105" y="134" width="150" height="28"/>
  <text x="180" y="148">Column</text>
  <line x1="150" y1="162" x2="150" y2="180"/>
  <rect x="75" y="184" width="210" height="50"/>
  <text x="180" y="198" font-size="11px">name, type</text>
  <text x="180" y="216" font-size="11px">(i64/u64/f64/string/bool/tag/time)</text>
  <text x="180" y="232" font-size="11px">nullable</text>

  <!-- Partition -->
  <rect x="290" y="134" width="180" height="28"/>
  <text x="380" y="148">Partition (time range)</text>
  <line x1="380" y1="162" x2="380" y2="185"/>

  <!-- Parquet File -->
  <rect x="290" y="189" width="180" height="28"/>
  <text x="380" y="203">Parquet File</text>
  <line x1="340" y1="217" x2="340" y2="238"/>

  <!-- File metadata fields -->
  <rect x="260" y="242" width="240" height="150"/>
  <text x="380" y="258" font-size="11px">object_store_path</text>
  <text x="380" y="276" font-size="11px">file_size_bytes</text>
  <text x="380" y="294" font-size="11px">row_count</text>
  <text x="380" y="312" font-size="11px">min_time, max_time</text>
  <text x="380" y="330" font-size="11px">created_at</text>
  <text x="380" y="348" font-size="11px">to_delete (soft delete flag)</text>
  <line x1="310" y1="258" x2="310" y2="258"/>
</svg>