<?xml version="1.0" encoding="UTF-8"?>
<svg xmlns="http://www.w3.org/2000/svg" viewBox="0 0 700 140" width="700" height="140">
  <style>
    text { font-family: 'SF Mono','Fira Code','Cascadia Code','Courier New','Microsoft YaHei','SimHei',monospace; fill: #e2e8f0; }
  </style>
  <defs>
    <linearGradient id="bg-grad" x1="0%" y1="0%" x2="100%" y2="100%">
      <stop offset="0%" stop-color="#0f0f1a"/>
      <stop offset="100%" stop-color="#1a1a2e"/>
    </linearGradient>
    <marker id="arrow-blue" markerWidth="8" markerHeight="6" refX="8" refY="3" orient="auto" markerUnits="userSpaceOnUse" overflow="visible">
      <path d="M0,0 L8,3 L0,6 Z" fill="#3b82f6"/>
    </marker>
    <marker id="arrow-orange" markerWidth="8" markerHeight="6" refX="8" refY="3" orient="auto" markerUnits="userSpaceOnUse" overflow="visible">
      <path d="M0,0 L8,3 L0,6 Z" fill="#f97316"/>
    </marker>
  </defs>
  <rect width="700" height="140" fill="url(#bg-grad)"/>
  <text x="175" y="22" font-size="13" font-weight="700" fill="#e2e8f0" text-anchor="middle">传统架构：</text>
  <rect x="20" y="35" width="100" height="34" rx="6" fill="#1e1b4b" stroke="#7c3aed" stroke-width="1.5"/>
  <text x="70" y="57" font-size="11" fill="#e2e8f0" text-anchor="middle">Compute</text>
  <line x1="120" y1="42" x2="185" y2="42" stroke="#3b82f6" stroke-width="1.8" marker-end="url(#arrow-blue)"/>
  <text x="153" y="35" font-size="10" fill="#3b82f6" text-anchor="middle">data pages</text>
  <line x1="120" y1="60" x2="185" y2="60" stroke="#f97316" stroke-width="1.5" stroke-dasharray="5,3" marker-end="url(#arrow-orange)"/>
  <text x="153" y="73" font-size="10" fill="#f97316" text-anchor="middle">WAL</text>
  <rect x="190" y="35" width="100" height="34" rx="6" fill="#0f172a" stroke="#334155" stroke-width="1.5"/>
  <text x="240" y="57" font-size="11" fill="#94a3b8" text-anchor="middle">Storage</text>
  <line x1="340" y1="15" x2="340" y2="125" stroke="#334155" stroke-width="1.5" stroke-dasharray="4,3"/>
  <text x="525" y="22" font-size="13" font-weight="700" fill="#e2e8f0" text-anchor="middle">存储计算分离架构：</text>
  <rect x="390" y="35" width="100" height="34" rx="6" fill="#1e1b4b" stroke="#7c3aed" stroke-width="1.5"/>
  <text x="440" y="57" font-size="11" fill="#e2e8f0" text-anchor="middle">Compute</text>
  <line x1="490" y1="52" x2="545" y2="52" stroke="#3b82f6" stroke-width="1.8" marker-end="url(#arrow-blue)"/>
  <text x="518" y="44" font-size="10" fill="#3b82f6" text-anchor="middle">redo log only</text>
  <rect x="550" y="35" width="100" height="34" rx="6" fill="#0f172a" stroke="#334155" stroke-width="1.5"/>
  <text x="600" y="57" font-size="11" fill="#94a3b8" text-anchor="middle">Storage</text>
  <line x1="600" y1="69" x2="600" y2="88" stroke="#10b981" stroke-width="1.5" marker-end="url(#arrow-blue)"/>
  <text x="620" y="82" font-size="10" fill="#10b981">异步 replay</text>
  <rect x="545" y="93" width="110" height="28" rx="5" fill="#052e16" stroke="#059669" stroke-width="1"/>
  <text x="600" y="112" font-size="10" fill="#e2e8f0" text-anchor="middle">data page</text>
</svg>