<svg xmlns="http://www.w3.org/2000/svg" viewBox="0 0 860 520" width="860" height="520">
  <style>
    text { font-family: 'Helvetica Neue', Helvetica, Arial, 'PingFang SC', 'Microsoft YaHei', 'Microsoft JhengHei', 'SimHei', sans-serif; }
  </style>
  <defs>
    <marker id="arrow-blue" markerWidth="10" markerHeight="7" refX="9" refY="3.5" orient="auto">
      <polygon points="0 0, 10 3.5, 0 7" fill="#2563eb"/>
    </marker>
    <marker id="arrow-green" markerWidth="10" markerHeight="7" refX="9" refY="3.5" orient="auto">
      <polygon points="0 0, 10 3.5, 0 7" fill="#16a34a"/>
    </marker>
    <marker id="arrow-purple" markerWidth="10" markerHeight="7" refX="9" refY="3.5" orient="auto">
      <polygon points="0 0, 10 3.5, 0 7" fill="#9333ea"/>
    </marker>
    <marker id="arrow-red" markerWidth="10" markerHeight="7" refX="9" refY="3.5" orient="auto">
      <polygon points="0 0, 10 3.5, 0 7" fill="#dc2626"/>
    </marker>
    <marker id="arrow-orange" markerWidth="10" markerHeight="7" refX="9" refY="3.5" orient="auto">
      <polygon points="0 0, 10 3.5, 0 7" fill="#f97316"/>
    </marker>
  </defs>
  <rect width="860" height="520" fill="#ffffff"/>
  <text x="30" y="32" fill="#111827" font-size="16" font-weight="700">LSM-Tree 2026 New Progress — Silo + Fluss + 10 Wiki Cards</text>
  <text x="30" y="50" fill="#6b7280" font-size="11">From single-node LSM to distributed compaction scheduling (Silo) + streaming storage (Fluss RocksDB)</text>
  <text x="30" y="80" fill="#2563eb" font-size="12" font-weight="700">01 // CLASSIC LSM (Single-Node)</text>
  <rect x="30" y="94" width="148" height="40" rx="8" fill="#eff6ff" stroke="#bfdbfe" stroke-width="1.5"/>
  <text x="104" y="120" fill="#111827" font-size="11" font-weight="600" text-anchor="middle">Write→WAL</text>
  <rect x="195" y="94" width="148" height="40" rx="8" fill="#eff6ff" stroke="#bfdbfe" stroke-width="1.5"/>
  <text x="269" y="120" fill="#111827" font-size="11" font-weight="600" text-anchor="middle">MemTable</text>
  <rect x="360" y="94" width="148" height="40" rx="8" fill="#eff6ff" stroke="#bfdbfe" stroke-width="1.5"/>
  <text x="434" y="120" fill="#111827" font-size="11" font-weight="600" text-anchor="middle">L0→L1...LK</text>
  <rect x="525" y="94" width="148" height="40" rx="8" fill="#eff6ff" stroke="#bfdbfe" stroke-width="1.5"/>
  <text x="599" y="120" fill="#111827" font-size="11" font-weight="600" text-anchor="middle">Compaction</text>
  <rect x="690" y="94" width="148" height="40" rx="8" fill="#eff6ff" stroke="#bfdbfe" stroke-width="1.5"/>
  <text x="764" y="120" fill="#111827" font-size="11" font-weight="600" text-anchor="middle">Bloom Filter</text>
  <line x1="430" y1="134" x2="430" y2="168" stroke="#9333ea" stroke-width="1.5" marker-end="url(#arrow-purple)"/>
  <text x="440" y="158" fill="#9333ea" font-size="9">extend to distributed</text>
  <text x="30" y="188" fill="#9333ea" font-size="12" font-weight="700">02 // DISTRIBUTED EXTENSIONS</text>
  <text x="30" y="212" fill="#dc2626" font-size="12" font-weight="700">Silo (FAST 2026) — Global Compaction Scheduler</text>
  <rect x="30" y="226" width="190" height="48" rx="8" fill="#fef2f2" stroke="#fecaca" stroke-width="1.5"/>
  <text x="125" y="246" fill="#111827" font-size="11" font-weight="600" text-anchor="middle">Central Planner</text>
  <text x="125" y="262" fill="#6b7280" font-size="9" text-anchor="middle">global view</text>
  <rect x="240" y="226" width="190" height="48" rx="8" fill="#fef2f2" stroke="#fecaca" stroke-width="1.5"/>
  <text x="335" y="246" fill="#111827" font-size="11" font-weight="600" text-anchor="middle">SST Migration</text>
  <text x="335" y="262" fill="#6b7280" font-size="9" text-anchor="middle">offload write</text>
  <rect x="450" y="226" width="190" height="48" rx="8" fill="#fef2f2" stroke="#fecaca" stroke-width="1.5"/>
  <text x="545" y="246" fill="#111827" font-size="11" font-weight="600" text-anchor="middle">Lease-based</text>
  <text x="545" y="262" fill="#6b7280" font-size="9" text-anchor="middle">fault-tolerant</text>
  <rect x="660" y="226" width="190" height="48" rx="8" fill="#fef2f2" stroke="#fecaca" stroke-width="1.5"/>
  <text x="755" y="246" fill="#111827" font-size="11" font-weight="600" text-anchor="middle">Write Amp ↓30%</text>
  <text x="755" y="262" fill="#6b7280" font-size="9" text-anchor="middle">benchmark</text>
  <text x="30" y="296" fill="#f97316" font-size="12" font-weight="700">Fluss (Apache) — Streaming Storage with RocksDB</text>
  <rect x="30" y="310" width="190" height="48" rx="8" fill="#fff7ed" stroke="#fed7aa" stroke-width="1.5"/>
  <text x="125" y="330" fill="#111827" font-size="11" font-weight="600" text-anchor="middle">LogSegment</text>
  <text x="125" y="346" fill="#6b7280" font-size="9" text-anchor="middle">KV dispatcher</text>
  <rect x="240" y="310" width="190" height="48" rx="8" fill="#fff7ed" stroke="#fed7aa" stroke-width="1.5"/>
  <text x="335" y="330" fill="#111827" font-size="11" font-weight="600" text-anchor="middle">RocksDB WAL</text>
  <text x="335" y="346" fill="#6b7280" font-size="9" text-anchor="middle">durability</text>
  <rect x="450" y="310" width="190" height="48" rx="8" fill="#fff7ed" stroke="#fed7aa" stroke-width="1.5"/>
  <text x="545" y="330" fill="#111827" font-size="11" font-weight="600" text-anchor="middle">Tiered Compact</text>
  <text x="545" y="346" fill="#6b7280" font-size="9" text-anchor="middle">L0→S3</text>
  <rect x="660" y="310" width="190" height="48" rx="8" fill="#fff7ed" stroke="#fed7aa" stroke-width="1.5"/>
  <text x="755" y="330" fill="#111827" font-size="11" font-weight="600" text-anchor="middle">Arrow Batch</text>
  <text x="755" y="346" fill="#6b7280" font-size="9" text-anchor="middle">col. read</text>
  <text x="30" y="386" fill="#16a34a" font-size="12" font-weight="700">03 // WIKI CARD COVERAGE — 10 cards</text>
  <rect x="30" y="400" width="152" height="34" rx="8" fill="#ffffff" stroke="#d1d5db" stroke-width="1.5"/>
  <text x="106" y="422" fill="#374151" font-size="10" font-weight="500" text-anchor="middle">LSM-Tree</text>
  <rect x="196" y="400" width="152" height="34" rx="8" fill="#ffffff" stroke="#d1d5db" stroke-width="1.5"/>
  <text x="272" y="422" fill="#374151" font-size="10" font-weight="500" text-anchor="middle">Compaction</text>
  <rect x="362" y="400" width="152" height="34" rx="8" fill="#ffffff" stroke="#d1d5db" stroke-width="1.5"/>
  <text x="438" y="422" fill="#374151" font-size="10" font-weight="500" text-anchor="middle">RUM Conjecture</text>
  <rect x="528" y="400" width="152" height="34" rx="8" fill="#ffffff" stroke="#d1d5db" stroke-width="1.5"/>
  <text x="604" y="422" fill="#374151" font-size="10" font-weight="500" text-anchor="middle">Write Amp</text>
  <rect x="694" y="400" width="152" height="34" rx="8" fill="#ffffff" stroke="#d1d5db" stroke-width="1.5"/>
  <text x="770" y="422" fill="#374151" font-size="10" font-weight="500" text-anchor="middle">Auto-Tune</text>
  <rect x="30" y="442" width="152" height="34" rx="8" fill="#ffffff" stroke="#d1d5db" stroke-width="1.5"/>
  <text x="106" y="464" fill="#374151" font-size="10" font-weight="500" text-anchor="middle">Silo</text>
  <rect x="196" y="442" width="152" height="34" rx="8" fill="#ffffff" stroke="#d1d5db" stroke-width="1.5"/>
  <text x="272" y="464" fill="#374151" font-size="10" font-weight="500" text-anchor="middle">Fluss WAL</text>
  <rect x="362" y="442" width="152" height="34" rx="8" fill="#ffffff" stroke="#d1d5db" stroke-width="1.5"/>
  <text x="438" y="464" fill="#374151" font-size="10" font-weight="500" text-anchor="middle">RocksDB</text>
  <rect x="528" y="442" width="152" height="34" rx="8" fill="#ffffff" stroke="#d1d5db" stroke-width="1.5"/>
  <text x="604" y="464" fill="#374151" font-size="10" font-weight="500" text-anchor="middle">Index</text>
  <rect x="694" y="442" width="152" height="34" rx="8" fill="#ffffff" stroke="#d1d5db" stroke-width="1.5"/>
  <text x="770" y="464" fill="#374151" font-size="10" font-weight="500" text-anchor="middle">HW Adapt</text>
  <g transform="translate(30, 492)">
    <rect x="0" y="0" width="14" height="14" rx="3" fill="#eff6ff" stroke="#bfdbfe" stroke-width="1"/>
    <text x="20" y="12" fill="#6b7280" font-size="10">Classic LSM</text>
    <rect x="140" y="0" width="14" height="14" rx="3" fill="#fef2f2" stroke="#fecaca" stroke-width="1"/>
    <text x="160" y="12" fill="#6b7280" font-size="10">Silo</text>
    <rect x="280" y="0" width="14" height="14" rx="3" fill="#fff7ed" stroke="#fed7aa" stroke-width="1"/>
    <text x="300" y="12" fill="#6b7280" font-size="10">Fluss</text>
    <rect x="420" y="0" width="14" height="14" rx="3" fill="#f0fdf4" stroke="#bbf7d0" stroke-width="1"/>
    <text x="440" y="12" fill="#6b7280" font-size="10">Wiki Cards</text>
  </g>
</svg>
