<svg xmlns="http://www.w3.org/2000/svg" viewBox="0 0 890 550">
  <defs>
    <pattern id="grid" width="40" height="40" patternUnits="userSpaceOnUse">
      <path d="M 40 0 L 0 0 0 40" fill="none" stroke="#1e293b" stroke-width="0.5"/>
    </pattern>
    <marker id="arrow-cyan" markerWidth="10" markerHeight="7" refX="9" refY="3.5" orient="auto">
      <polygon points="0 0, 10 3.5, 0 7" fill="#22d3ee"/>
    </marker>
    <marker id="arrow-emerald" markerWidth="10" markerHeight="7" refX="9" refY="3.5" orient="auto">
      <polygon points="0 0, 10 3.5, 0 7" fill="#34d399"/>
    </marker>
    <marker id="arrow-violet" markerWidth="10" markerHeight="7" refX="9" refY="3.5" orient="auto">
      <polygon points="0 0, 10 3.5, 0 7" fill="#a78bfa"/>
    </marker>
    <marker id="arrow-rose" markerWidth="10" markerHeight="7" refX="9" refY="3.5" orient="auto">
      <polygon points="0 0, 10 3.5, 0 7" fill="#fb7185"/>
    </marker>
    <marker id="arrow-orange" markerWidth="10" markerHeight="7" refX="9" refY="3.5" orient="auto">
      <polygon points="0 0, 10 3.5, 0 7" fill="#fb923c"/>
    </marker>
  </defs>

  <!-- Background -->
  <rect width="100%" height="100%" fill="#0f172a"/>
  <rect width="100%" height="100%" fill="url(#grid)"/>

  <!-- Title -->
  <text x="30" y="35" fill="#f1f5f9" font-family="'JetBrains Mono','Noto Sans SC','PingFang SC',sans-serif" font-size="16" font-weight="700">LSM-Tree 2026 New Progress — Silo + Fluss + 10 Wiki Cards</text>
  <text x="30" y="55" fill="#94a3b8" font-family="'JetBrains Mono','Noto Sans SC','PingFang SC',sans-serif" font-size="10">From single-node LSM to distributed compaction scheduling (Silo) + streaming storage (Fluss RocksDB)</text>

  <!-- Section 01: Classic LSM (Primary / Cyan) -->
  <text x="30" y="88" fill="#22d3ee" font-family="'JetBrains Mono','Noto Sans SC','PingFang SC',sans-serif" font-size="12" font-weight="700">01 // CLASSIC LSM (Single-Node)</text>

  <!-- Box 1: Write→WAL -->
  <rect x="30" y="100" width="152" height="42" rx="6" fill="#0f172a"/>
  <rect x="30" y="100" width="152" height="42" rx="6" fill="rgba(8,51,68,0.4)" stroke="#22d3ee" stroke-width="1.5"/>
  <text x="106" y="126" fill="#e2e8f0" font-family="'JetBrains Mono','Noto Sans SC','PingFang SC',sans-serif" font-size="11" font-weight="600" text-anchor="middle">Write→WAL</text>

  <!-- Box 2: MemTable -->
  <rect x="198" y="100" width="152" height="42" rx="6" fill="#0f172a"/>
  <rect x="198" y="100" width="152" height="42" rx="6" fill="rgba(8,51,68,0.4)" stroke="#22d3ee" stroke-width="1.5"/>
  <text x="274" y="126" fill="#e2e8f0" font-family="'JetBrains Mono','Noto Sans SC','PingFang SC',sans-serif" font-size="11" font-weight="600" text-anchor="middle">MemTable</text>

  <!-- Box 3: L0→L1...LK -->
  <rect x="366" y="100" width="152" height="42" rx="6" fill="#0f172a"/>
  <rect x="366" y="100" width="152" height="42" rx="6" fill="rgba(8,51,68,0.4)" stroke="#22d3ee" stroke-width="1.5"/>
  <text x="442" y="126" fill="#e2e8f0" font-family="'JetBrains Mono','Noto Sans SC','PingFang SC',sans-serif" font-size="11" font-weight="600" text-anchor="middle">L0→L1...LK</text>

  <!-- Box 4: Compaction -->
  <rect x="534" y="100" width="152" height="42" rx="6" fill="#0f172a"/>
  <rect x="534" y="100" width="152" height="42" rx="6" fill="rgba(8,51,68,0.4)" stroke="#22d3ee" stroke-width="1.5"/>
  <text x="610" y="126" fill="#e2e8f0" font-family="'JetBrains Mono','Noto Sans SC','PingFang SC',sans-serif" font-size="11" font-weight="600" text-anchor="middle">Compaction</text>

  <!-- Box 5: Bloom Filter -->
  <rect x="702" y="100" width="152" height="42" rx="6" fill="#0f172a"/>
  <rect x="702" y="100" width="152" height="42" rx="6" fill="rgba(8,51,68,0.4)" stroke="#22d3ee" stroke-width="1.5"/>
  <text x="778" y="126" fill="#e2e8f0" font-family="'JetBrains Mono','Noto Sans SC','PingFang SC',sans-serif" font-size="11" font-weight="600" text-anchor="middle">Bloom Filter</text>

  <!-- Arrow from classic to distributed -->
  <line x1="442" y1="142" x2="442" y2="178" stroke="#a78bfa" stroke-width="1.5" marker-end="url(#arrow-violet)"/>
  <text x="452" y="168" fill="#a78bfa" font-family="'JetBrains Mono','Noto Sans SC','PingFang SC',sans-serif" font-size="9">extend to distributed</text>

  <!-- Section 02: Distributed Extensions -->
  <text x="30" y="198" fill="#a78bfa" font-family="'JetBrains Mono','Noto Sans SC','PingFang SC',sans-serif" font-size="12" font-weight="700">02 // DISTRIBUTED EXTENSIONS</text>

  <!-- Silo (Alert / Rose) -->
  <text x="30" y="226" fill="#fb7185" font-family="'JetBrains Mono','Noto Sans SC','PingFang SC',sans-serif" font-size="12" font-weight="700">Silo (FAST 2026) — Global Compaction Scheduler</text>

  <!-- Silo boxes row -->
  <rect x="30" y="238" width="195" height="52" rx="6" fill="#0f172a"/>
  <rect x="30" y="238" width="195" height="52" rx="6" fill="rgba(136,19,55,0.4)" stroke="#fb7185" stroke-width="1.5"/>
  <text x="128" y="260" fill="#e2e8f0" font-family="'JetBrains Mono','Noto Sans SC','PingFang SC',sans-serif" font-size="11" font-weight="600" text-anchor="middle">Central Planner</text>
  <text x="128" y="278" fill="#94a3b8" font-family="'JetBrains Mono','Noto Sans SC','PingFang SC',sans-serif" font-size="9" text-anchor="middle">global view</text>

  <rect x="243" y="238" width="195" height="52" rx="6" fill="#0f172a"/>
  <rect x="243" y="238" width="195" height="52" rx="6" fill="rgba(136,19,55,0.4)" stroke="#fb7185" stroke-width="1.5"/>
  <text x="341" y="260" fill="#e2e8f0" font-family="'JetBrains Mono','Noto Sans SC','PingFang SC',sans-serif" font-size="11" font-weight="600" text-anchor="middle">SST Migration</text>
  <text x="341" y="278" fill="#94a3b8" font-family="'JetBrains Mono','Noto Sans SC','PingFang SC',sans-serif" font-size="9" text-anchor="middle">offload write</text>

  <rect x="456" y="238" width="195" height="52" rx="6" fill="#0f172a"/>
  <rect x="456" y="238" width="195" height="52" rx="6" fill="rgba(136,19,55,0.4)" stroke="#fb7185" stroke-width="1.5"/>
  <text x="554" y="260" fill="#e2e8f0" font-family="'JetBrains Mono','Noto Sans SC','PingFang SC',sans-serif" font-size="11" font-weight="600" text-anchor="middle">Lease-based</text>
  <text x="554" y="278" fill="#94a3b8" font-family="'JetBrains Mono','Noto Sans SC','PingFang SC',sans-serif" font-size="9" text-anchor="middle">fault-tolerant</text>

  <rect x="669" y="238" width="195" height="52" rx="6" fill="#0f172a"/>
  <rect x="669" y="238" width="195" height="52" rx="6" fill="rgba(136,19,55,0.4)" stroke="#fb7185" stroke-width="1.5"/>
  <text x="767" y="260" fill="#e2e8f0" font-family="'JetBrains Mono','Noto Sans SC','PingFang SC',sans-serif" font-size="11" font-weight="600" text-anchor="middle">Write Amp ↓30%</text>
  <text x="767" y="278" fill="#94a3b8" font-family="'JetBrains Mono','Noto Sans SC','PingFang SC',sans-serif" font-size="9" text-anchor="middle">benchmark</text>

  <!-- Fluss (Connector / Orange) -->
  <text x="30" y="316" fill="#fb923c" font-family="'JetBrains Mono','Noto Sans SC','PingFang SC',sans-serif" font-size="12" font-weight="700">Fluss (Apache) — Streaming Storage with RocksDB</text>

  <rect x="30" y="328" width="195" height="52" rx="6" fill="#0f172a"/>
  <rect x="30" y="328" width="195" height="52" rx="6" fill="rgba(251,146,60,0.3)" stroke="#fb923c" stroke-width="1.5"/>
  <text x="128" y="350" fill="#e2e8f0" font-family="'JetBrains Mono','Noto Sans SC','PingFang SC',sans-serif" font-size="11" font-weight="600" text-anchor="middle">LogSegment</text>
  <text x="128" y="368" fill="#94a3b8" font-family="'JetBrains Mono','Noto Sans SC','PingFang SC',sans-serif" font-size="9" text-anchor="middle">KV dispatcher</text>

  <rect x="243" y="328" width="195" height="52" rx="6" fill="#0f172a"/>
  <rect x="243" y="328" width="195" height="52" rx="6" fill="rgba(251,146,60,0.3)" stroke="#fb923c" stroke-width="1.5"/>
  <text x="341" y="350" fill="#e2e8f0" font-family="'JetBrains Mono','Noto Sans SC','PingFang SC',sans-serif" font-size="11" font-weight="600" text-anchor="middle">RocksDB WAL</text>
  <text x="341" y="368" fill="#94a3b8" font-family="'JetBrains Mono','Noto Sans SC','PingFang SC',sans-serif" font-size="9" text-anchor="middle">durability</text>

  <rect x="456" y="328" width="195" height="52" rx="6" fill="#0f172a"/>
  <rect x="456" y="328" width="195" height="52" rx="6" fill="rgba(251,146,60,0.3)" stroke="#fb923c" stroke-width="1.5"/>
  <text x="554" y="350" fill="#e2e8f0" font-family="'JetBrains Mono','Noto Sans SC','PingFang SC',sans-serif" font-size="11" font-weight="600" text-anchor="middle">Tiered Compact</text>
  <text x="554" y="368" fill="#94a3b8" font-family="'JetBrains Mono','Noto Sans SC','PingFang SC',sans-serif" font-size="9" text-anchor="middle">L0→S3</text>

  <rect x="669" y="328" width="195" height="52" rx="6" fill="#0f172a"/>
  <rect x="669" y="328" width="195" height="52" rx="6" fill="rgba(251,146,60,0.3)" stroke="#fb923c" stroke-width="1.5"/>
  <text x="767" y="350" fill="#e2e8f0" font-family="'JetBrains Mono','Noto Sans SC','PingFang SC',sans-serif" font-size="11" font-weight="600" text-anchor="middle">Arrow Batch</text>
  <text x="767" y="368" fill="#94a3b8" font-family="'JetBrains Mono','Noto Sans SC','PingFang SC',sans-serif" font-size="9" text-anchor="middle">col. read</text>

  <!-- Section 03: Wiki Cards (Secondary / Emerald) -->
  <text x="30" y="406" fill="#34d399" font-family="'JetBrains Mono','Noto Sans SC','PingFang SC',sans-serif" font-size="12" font-weight="700">03 // WIKI CARD COVERAGE — 10 cards</text>

  <!-- Row 1 -->
  <rect x="30" y="418" width="155" height="36" rx="6" fill="#0f172a"/>
  <rect x="30" y="418" width="155" height="36" rx="6" fill="rgba(30,41,59,0.5)" stroke="#94a3b8" stroke-width="1.5"/>
  <text x="108" y="441" fill="#cbd5e1" font-family="'JetBrains Mono','Noto Sans SC','PingFang SC',sans-serif" font-size="10" font-weight="500" text-anchor="middle">LSM-Tree</text>

  <rect x="199" y="418" width="155" height="36" rx="6" fill="#0f172a"/>
  <rect x="199" y="418" width="155" height="36" rx="6" fill="rgba(30,41,59,0.5)" stroke="#94a3b8" stroke-width="1.5"/>
  <text x="277" y="441" fill="#cbd5e1" font-family="'JetBrains Mono','Noto Sans SC','PingFang SC',sans-serif" font-size="10" font-weight="500" text-anchor="middle">Compaction</text>

  <rect x="368" y="418" width="155" height="36" rx="6" fill="#0f172a"/>
  <rect x="368" y="418" width="155" height="36" rx="6" fill="rgba(30,41,59,0.5)" stroke="#94a3b8" stroke-width="1.5"/>
  <text x="446" y="441" fill="#cbd5e1" font-family="'JetBrains Mono','Noto Sans SC','PingFang SC',sans-serif" font-size="10" font-weight="500" text-anchor="middle">RUM Conjecture</text>

  <rect x="537" y="418" width="155" height="36" rx="6" fill="#0f172a"/>
  <rect x="537" y="418" width="155" height="36" rx="6" fill="rgba(30,41,59,0.5)" stroke="#94a3b8" stroke-width="1.5"/>
  <text x="615" y="441" fill="#cbd5e1" font-family="'JetBrains Mono','Noto Sans SC','PingFang SC',sans-serif" font-size="10" font-weight="500" text-anchor="middle">Write Amp</text>

  <rect x="706" y="418" width="155" height="36" rx="6" fill="#0f172a"/>
  <rect x="706" y="418" width="155" height="36" rx="6" fill="rgba(30,41,59,0.5)" stroke="#94a3b8" stroke-width="1.5"/>
  <text x="784" y="441" fill="#cbd5e1" font-family="'JetBrains Mono','Noto Sans SC','PingFang SC',sans-serif" font-size="10" font-weight="500" text-anchor="middle">Auto-Tune</text>

  <!-- Row 2 -->
  <rect x="30" y="462" width="155" height="36" rx="6" fill="#0f172a"/>
  <rect x="30" y="462" width="155" height="36" rx="6" fill="rgba(30,41,59,0.5)" stroke="#94a3b8" stroke-width="1.5"/>
  <text x="108" y="485" fill="#cbd5e1" font-family="'JetBrains Mono','Noto Sans SC','PingFang SC',sans-serif" font-size="10" font-weight="500" text-anchor="middle">Silo</text>

  <rect x="199" y="462" width="155" height="36" rx="6" fill="#0f172a"/>
  <rect x="199" y="462" width="155" height="36" rx="6" fill="rgba(30,41,59,0.5)" stroke="#94a3b8" stroke-width="1.5"/>
  <text x="277" y="485" fill="#cbd5e1" font-family="'JetBrains Mono','Noto Sans SC','PingFang SC',sans-serif" font-size="10" font-weight="500" text-anchor="middle">Fluss WAL</text>

  <rect x="368" y="462" width="155" height="36" rx="6" fill="#0f172a"/>
  <rect x="368" y="462" width="155" height="36" rx="6" fill="rgba(30,41,59,0.5)" stroke="#94a3b8" stroke-width="1.5"/>
  <text x="446" y="485" fill="#cbd5e1" font-family="'JetBrains Mono','Noto Sans SC','PingFang SC',sans-serif" font-size="10" font-weight="500" text-anchor="middle">RocksDB</text>

  <rect x="537" y="462" width="155" height="36" rx="6" fill="#0f172a"/>
  <rect x="537" y="462" width="155" height="36" rx="6" fill="rgba(30,41,59,0.5)" stroke="#94a3b8" stroke-width="1.5"/>
  <text x="615" y="485" fill="#cbd5e1" font-family="'JetBrains Mono','Noto Sans SC','PingFang SC',sans-serif" font-size="10" font-weight="500" text-anchor="middle">Index</text>

  <rect x="706" y="462" width="155" height="36" rx="6" fill="#0f172a"/>
  <rect x="706" y="462" width="155" height="36" rx="6" fill="rgba(30,41,59,0.5)" stroke="#94a3b8" stroke-width="1.5"/>
  <text x="784" y="485" fill="#cbd5e1" font-family="'JetBrains Mono','Noto Sans SC','PingFang SC',sans-serif" font-size="10" font-weight="500" text-anchor="middle">HW Adapt</text>

  <!-- Legend -->
  <g transform="translate(30, 518)">
    <rect x="0" y="0" width="14" height="14" rx="3" fill="rgba(8,51,68,0.4)" stroke="#22d3ee" stroke-width="1"/>
    <text x="20" y="12" fill="#94a3b8" font-family="'JetBrains Mono','Noto Sans SC','PingFang SC',sans-serif" font-size="10">Classic LSM</text>
    <rect x="145" y="0" width="14" height="14" rx="3" fill="rgba(136,19,55,0.4)" stroke="#fb7185" stroke-width="1"/>
    <text x="165" y="12" fill="#94a3b8" font-family="'JetBrains Mono','Noto Sans SC','PingFang SC',sans-serif" font-size="10">Silo</text>
    <rect x="290" y="0" width="14" height="14" rx="3" fill="rgba(251,146,60,0.3)" stroke="#fb923c" stroke-width="1"/>
    <text x="310" y="12" fill="#94a3b8" font-family="'JetBrains Mono','Noto Sans SC','PingFang SC',sans-serif" font-size="10">Fluss</text>
    <rect x="435" y="0" width="14" height="14" rx="3" fill="rgba(30,41,59,0.5)" stroke="#94a3b8" stroke-width="1"/>
    <text x="455" y="12" fill="#94a3b8" font-family="'JetBrains Mono','Noto Sans SC','PingFang SC',sans-serif" font-size="10">Wiki Cards</text>
  </g>
</svg>