<svg xmlns="http://www.w3.org/2000/svg" viewBox="0 0 880 540">
  <style>
    @import url('https://fonts.googleapis.com/css2?family=JetBrains+Mono:wght@400;500;600;700&amp;display=swap');
    text { font-family: 'JetBrains Mono', 'Noto Sans SC', 'PingFang SC', sans-serif; }
  </style>
  <defs>
    <pattern id="grid" width="40" height="40" patternUnits="userSpaceOnUse">
      <path d="M 40 0 L 0 0 0 40" fill="none" stroke="#1e293b" stroke-width="0.5"/>
    </pattern>
    <marker id="arrow-cyan" markerWidth="10" markerHeight="7" refX="9" refY="3.5" orient="auto">
      <polygon points="0 0, 10 3.5, 0 7" fill="#22d3ee"/>
    </marker>
    <marker id="arrow-emerald" markerWidth="10" markerHeight="7" refX="9" refY="3.5" orient="auto">
      <polygon points="0 0, 10 3.5, 0 7" fill="#34d399"/>
    </marker>
    <marker id="arrow-violet" markerWidth="10" markerHeight="7" refX="9" refY="3.5" orient="auto">
      <polygon points="0 0, 10 3.5, 0 7" fill="#a78bfa"/>
    </marker>
    <marker id="arrow-amber" markerWidth="10" markerHeight="7" refX="9" refY="3.5" orient="auto">
      <polygon points="0 0, 10 3.5, 0 7" fill="#fbbf24"/>
    </marker>
  </defs>
  <rect width="100%" height="100%" fill="#0f172a"/>
  <rect width="100%" height="100%" fill="url(#grid)"/>
  <text x="30" y="32" fill="#f1f5f9" font-size="16" font-weight="700">OLAP vs. Time-Series Database — Domain Comparison</text>
  <text x="30" y="50" fill="#94a3b8" font-size="11">Doris (OLAP) vs. InfluxDB (TSDB) — different design paradigms, shared columnar trends</text>
  <text x="30" y="82" fill="#22d3ee" font-size="12" font-weight="700">OLAP — MPP Importer-Query Model</text>
  <rect x="30" y="96" width="380" height="40" rx="8" fill="#0f172a"/>
  <rect x="30" y="96" width="380" height="40" rx="8" fill="rgba(8,51,68,0.4)" stroke="#22d3ee" stroke-width="1.5"/>
  <text x="220" y="114" fill="#f1f5f9" font-size="11" font-weight="600" text-anchor="middle">Semantic Model</text>
  <text x="220" y="128" fill="#94a3b8" font-size="9" text-anchor="middle">star/snowflake schema</text>
  <rect x="30" y="144" width="380" height="40" rx="8" fill="#0f172a"/>
  <rect x="30" y="144" width="380" height="40" rx="8" fill="rgba(8,51,68,0.4)" stroke="#22d3ee" stroke-width="1.5"/>
  <text x="220" y="162" fill="#f1f5f9" font-size="11" font-weight="600" text-anchor="middle">Data Model</text>
  <text x="220" y="176" fill="#94a3b8" font-size="9" text-anchor="middle">Aggregate/Unique/Duplicate</text>
  <rect x="30" y="192" width="380" height="40" rx="8" fill="#0f172a"/>
  <rect x="30" y="192" width="380" height="40" rx="8" fill="rgba(8,51,68,0.4)" stroke="#22d3ee" stroke-width="1.5"/>
  <text x="220" y="210" fill="#f1f5f9" font-size="11" font-weight="600" text-anchor="middle">Query Engine</text>
  <text x="220" y="224" fill="#94a3b8" font-size="9" text-anchor="middle">MPP + vectorized + CBO</text>
  <rect x="30" y="240" width="380" height="40" rx="8" fill="#0f172a"/>
  <rect x="30" y="240" width="380" height="40" rx="8" fill="rgba(8,51,68,0.4)" stroke="#22d3ee" stroke-width="1.5"/>
  <text x="220" y="258" fill="#f1f5f9" font-size="11" font-weight="600" text-anchor="middle">Storage</text>
  <text x="220" y="272" fill="#94a3b8" font-size="9" text-anchor="middle">Segment v2 columnar</text>
  <rect x="30" y="288" width="380" height="40" rx="8" fill="#0f172a"/>
  <rect x="30" y="288" width="380" height="40" rx="8" fill="rgba(8,51,68,0.4)" stroke="#22d3ee" stroke-width="1.5"/>
  <text x="220" y="306" fill="#f1f5f9" font-size="11" font-weight="600" text-anchor="middle">Write Model</text>
  <text x="220" y="320" fill="#94a3b8" font-size="9" text-anchor="middle">batch append + MoW update</text>
  <rect x="30" y="336" width="380" height="40" rx="8" fill="#0f172a"/>
  <rect x="30" y="336" width="380" height="40" rx="8" fill="rgba(8,51,68,0.4)" stroke="#22d3ee" stroke-width="1.5"/>
  <text x="220" y="354" fill="#f1f5f9" font-size="11" font-weight="600" text-anchor="middle">Use Case</text>
  <text x="220" y="368" fill="#94a3b8" font-size="9" text-anchor="middle">multi-dim ad-hoc analysis</text>
  <text x="470" y="82" fill="#34d399" font-size="12" font-weight="700">TSDB — Time-Ordered Query Model</text>
  <rect x="470" y="96" width="380" height="40" rx="8" fill="#0f172a"/>
  <rect x="470" y="96" width="380" height="40" rx="8" fill="rgba(6,78,59,0.4)" stroke="#34d399" stroke-width="1.5"/>
  <text x="660" y="114" fill="#f1f5f9" font-size="11" font-weight="600" text-anchor="middle">Data Model</text>
  <text x="660" y="128" fill="#94a3b8" font-size="9" text-anchor="middle">measurement + tags</text>
  <rect x="470" y="144" width="380" height="40" rx="8" fill="#0f172a"/>
  <rect x="470" y="144" width="380" height="40" rx="8" fill="rgba(6,78,59,0.4)" stroke="#34d399" stroke-width="1.5"/>
  <text x="660" y="162" fill="#f1f5f9" font-size="11" font-weight="600" text-anchor="middle">Write Model</text>
  <text x="660" y="176" fill="#94a3b8" font-size="9" text-anchor="middle">time-ordered append</text>
  <rect x="470" y="192" width="380" height="40" rx="8" fill="#0f172a"/>
  <rect x="470" y="192" width="380" height="40" rx="8" fill="rgba(6,78,59,0.4)" stroke="#34d399" stroke-width="1.5"/>
  <text x="660" y="210" fill="#f1f5f9" font-size="11" font-weight="600" text-anchor="middle">Query Engine</text>
  <text x="660" y="224" fill="#94a3b8" font-size="9" text-anchor="middle">DataFusion pushdown</text>
  <rect x="470" y="240" width="380" height="40" rx="8" fill="#0f172a"/>
  <rect x="470" y="240" width="380" height="40" rx="8" fill="rgba(6,78,59,0.4)" stroke="#34d399" stroke-width="1.5"/>
  <text x="660" y="258" fill="#f1f5f9" font-size="11" font-weight="600" text-anchor="middle">Storage</text>
  <text x="660" y="272" fill="#94a3b8" font-size="9" text-anchor="middle">TSM → Parquet col.</text>
  <rect x="470" y="288" width="380" height="40" rx="8" fill="#0f172a"/>
  <rect x="470" y="288" width="380" height="40" rx="8" fill="rgba(6,78,59,0.4)" stroke="#34d399" stroke-width="1.5"/>
  <text x="660" y="306" fill="#f1f5f9" font-size="11" font-weight="600" text-anchor="middle">Compression</text>
  <text x="660" y="320" fill="#94a3b8" font-size="9" text-anchor="middle">timestamp delta + Gorilla</text>
  <rect x="470" y="336" width="380" height="40" rx="8" fill="#0f172a"/>
  <rect x="470" y="336" width="380" height="40" rx="8" fill="rgba(6,78,59,0.4)" stroke="#34d399" stroke-width="1.5"/>
  <text x="660" y="354" fill="#f1f5f9" font-size="11" font-weight="600" text-anchor="middle">Use Case</text>
  <text x="660" y="368" fill="#94a3b8" font-size="9" text-anchor="middle">metrics / monitoring</text>
  <line x1="415" y1="116" x2="462" y2="116" stroke="#a78bfa" stroke-width="1" stroke-dasharray="4,3"/>
  <line x1="415" y1="164" x2="462" y2="164" stroke="#a78bfa" stroke-width="1" stroke-dasharray="4,3"/>
  <line x1="415" y1="212" x2="462" y2="212" stroke="#a78bfa" stroke-width="1" stroke-dasharray="4,3"/>
  <line x1="415" y1="260" x2="462" y2="260" stroke="#a78bfa" stroke-width="1" stroke-dasharray="4,3"/>
  <line x1="415" y1="308" x2="462" y2="308" stroke="#a78bfa" stroke-width="1" stroke-dasharray="4,3"/>
  <line x1="415" y1="356" x2="462" y2="356" stroke="#a78bfa" stroke-width="1" stroke-dasharray="4,3"/>
  <text x="30" y="410" fill="#a78bfa" font-size="12" font-weight="700">Convergence Trend → Both moving toward columnar + cloud-native</text>
  <rect x="30" y="424" width="195" height="40" rx="8" fill="#0f172a"/>
  <rect x="30" y="424" width="195" height="40" rx="8" fill="rgba(76,29,149,0.4)" stroke="#a78bfa" stroke-width="1.5"/>
  <text x="128" y="442" fill="#f1f5f9" font-size="11" font-weight="600" text-anchor="middle">Columnar Storage</text>
  <text x="128" y="456" fill="#94a3b8" font-size="9" text-anchor="middle">Arrow/Parquet</text>
  <rect x="245" y="424" width="195" height="40" rx="8" fill="#0f172a"/>
  <rect x="245" y="424" width="195" height="40" rx="8" fill="rgba(76,29,149,0.4)" stroke="#a78bfa" stroke-width="1.5"/>
  <text x="343" y="442" fill="#f1f5f9" font-size="11" font-weight="600" text-anchor="middle">Query Federation</text>
  <text x="343" y="456" fill="#94a3b8" font-size="9" text-anchor="middle">Unified SQL</text>
  <rect x="460" y="424" width="195" height="40" rx="8" fill="#0f172a"/>
  <rect x="460" y="424" width="195" height="40" rx="8" fill="rgba(76,29,149,0.4)" stroke="#a78bfa" stroke-width="1.5"/>
  <text x="558" y="442" fill="#f1f5f9" font-size="11" font-weight="600" text-anchor="middle">S3/Tiered Store</text>
  <text x="558" y="456" fill="#94a3b8" font-size="9" text-anchor="middle">∞ scale</text>
  <rect x="675" y="424" width="195" height="40" rx="8" fill="#0f172a"/>
  <rect x="675" y="424" width="195" height="40" rx="8" fill="rgba(76,29,149,0.4)" stroke="#a78bfa" stroke-width="1.5"/>
  <text x="773" y="442" fill="#f1f5f9" font-size="11" font-weight="600" text-anchor="middle">Real-Time</text>
  <text x="773" y="456" fill="#94a3b8" font-size="9" text-anchor="middle">stream/materialize</text>
  <g transform="translate(30, 494)">
    <rect x="0" y="0" width="14" height="14" rx="3" fill="rgba(8,51,68,0.4)" stroke="#22d3ee" stroke-width="1"/>
    <text x="20" y="12" fill="#94a3b8" font-size="10">OLAP (Doris)</text>
    <rect x="170" y="0" width="14" height="14" rx="3" fill="rgba(6,78,59,0.4)" stroke="#34d399" stroke-width="1"/>
    <text x="190" y="12" fill="#94a3b8" font-size="10">TSDB (InfluxDB)</text>
    <rect x="340" y="0" width="14" height="14" rx="3" fill="rgba(76,29,149,0.4)" stroke="#a78bfa" stroke-width="1"/>
    <text x="360" y="12" fill="#94a3b8" font-size="10">Convergence</text>
  </g>
</svg>