<?xml version="1.0" encoding="UTF-8"?>
<svg xmlns="http://www.w3.org/2000/svg" viewBox="0 0 700 280" width="700" height="280">
  <style>
    text { font-family: 'SF Mono','Fira Code','Cascadia Code','Courier New','Microsoft YaHei','SimHei',monospace; fill: #e2e8f0; }
  </style>
  <defs>
    <linearGradient id="bg-grad" x1="0%" y1="0%" x2="100%" y2="100%">
      <stop offset="0%" stop-color="#0f0f1a"/>
      <stop offset="100%" stop-color="#1a1a2e"/>
    </linearGradient>
    <marker id="arrow-blue" markerWidth="8" markerHeight="6" refX="8" refY="3" orient="auto" markerUnits="userSpaceOnUse" overflow="visible">
      <path d="M0,0 L8,3 L0,6 Z" fill="#3b82f6"/>
    </marker>
    <marker id="arrow-green" markerWidth="8" markerHeight="6" refX="8" refY="3" orient="auto" markerUnits="userSpaceOnUse" overflow="visible">
      <path d="M0,0 L8,3 L0,6 Z" fill="#10b981"/>
    </marker>
      <marker id="arrow-94a3b8" markerWidth="10" markerHeight="7" refX="9" refY="3.5" orient="auto" markerUnits="userSpaceOnUse" overflow="visible">
      <polygon points="0 0, 10 3.5, 0 7" fill="#94a3b8"/>
    </marker>
    <marker id="arrow-10b981" markerWidth="10" markerHeight="7" refX="9" refY="3.5" orient="auto" markerUnits="userSpaceOnUse" overflow="visible">
      <polygon points="0 0, 10 3.5, 0 7" fill="#10b981"/>
    </marker>
    <marker id="arrow-3b82f6" markerWidth="10" markerHeight="7" refX="9" refY="3.5" orient="auto" markerUnits="userSpaceOnUse" overflow="visible">
      <polygon points="0 0, 10 3.5, 0 7" fill="#3b82f6"/>
    </marker>
  </defs>
  <rect width="700" height="280" fill="url(#bg-grad)"/>
  <text x="350" y="22" font-size="14" font-weight="700" fill="#e2e8f0" text-anchor="middle">RaaS: Replay-as-a-Service 架构</text>
  <rect x="10" y="40" width="120" height="32" rx="6" fill="#1e1b4b" stroke="#7c3aed" stroke-width="1.5"/>
  <text x="70" y="60" font-size="11" fill="#e2e8f0" text-anchor="middle">Compute Layer</text>
  <line x1="130" y1="56" x2="205" y2="56" stroke="#3b82f6" stroke-width="1.5" marker-end="url(#arrow-blue)"/>
  <text x="168" y="50" font-size="9" fill="#3b82f6" text-anchor="middle">redo log</text>
  <rect x="210" y="40" width="120" height="32" rx="6" fill="#0f172a" stroke="#334155" stroke-width="1.5"/>
  <text x="270" y="60" font-size="11" fill="#e2e8f0" text-anchor="middle">Log Store</text>
  <line x1="330" y1="56" x2="405" y2="56" stroke="#3b82f6" stroke-width="1.5" marker-end="url(#arrow-blue)"/>
  <text x="368" y="50" font-size="9" fill="#3b82f6" text-anchor="middle">redo log</text>
  <rect x="410" y="40" width="130" height="32" rx="6" fill="#052e16" stroke="#059669" stroke-width="1.5"/>
  <text x="475" y="60" font-size="11" fill="#e2e8f0" text-anchor="middle">Storage Layer</text>
  <line x1="475" y1="72" x2="475" y2="88" stroke="#94a3b8" stroke-width="1.5" marker-end="url(#arrow-94a3b8)"/>
  <text x="498" y="82" font-size="9" fill="#94a3b8" font-style="italic">① offload task</text>
  <line x1="475" y1="88" x2="475" y2="96" stroke="#10b981" stroke-width="1.5" marker-end="url(#arrow-green)"/>
  <rect x="365" y="98" width="220" height="30" rx="6" fill="#1c1917" stroke="#ea580c" stroke-width="1.5"/>
  <text x="475" y="117" font-size="11" fill="#e2e8f0" text-anchor="middle">Control Coordinator</text>
  <line x1="585" y1="113" x2="610" y2="113" stroke="#94a3b8" stroke-width="1"/>
  <text x="615" y="108" font-size="9" fill="#94a3b8">├─ Monitor</text>
  <text x="615" y="122" font-size="9" fill="#94a3b8">├─ Scheduler</text>
  <text x="615" y="136" font-size="9" fill="#94a3b8">└─ Dispatcher</text>
  <line x1="475" y1="128" x2="475" y2="148" stroke="#10b981" stroke-width="1.5" marker-end="url(#arrow-10b981)"/>
  <text x="498" y="142" font-size="9" fill="#10b981" font-style="italic">② dispatch</text>
  <rect x="380" y="152" width="240" height="50" rx="6" fill="none" stroke="#10b981" stroke-width="1.5" stroke-dasharray="5,3"/>
  <text x="500" y="172" font-size="11" fill="#e2e8f0" text-anchor="middle">RSA (Replay Service Agent)</text>
  <text x="500" y="190" font-size="9" fill="#94a3b8" text-anchor="middle" font-style="italic">on idle storage/compute nodes</text>
  <line x1="500" y1="202" x2="500" y2="218" stroke="#3b82f6" stroke-width="1.5" marker-end="url(#arrow-3b82f6)"/>
  <text x="520" y="214" font-size="9" fill="#3b82f6" font-style="italic">③ fetch/write</text>
  <line x1="500" y1="218" x2="500" y2="232" stroke="#3b82f6" stroke-width="1.5" marker-end="url(#arrow-3b82f6)"/>
  <rect x="390" y="236" width="220" height="30" rx="6" fill="#1e3a5f" stroke="#3b82f6" stroke-width="1.5"/>
  <text x="500" y="255" font-size="11" fill="#e2e8f0" text-anchor="middle">AWS S3</text>
</svg>