<?xml version="1.0" encoding="UTF-8"?>
<svg viewBox="0 0 760 400" xmlns="http://www.w3.org/2000/svg">
  <defs>
    <marker id="ar3" markerWidth="8" markerHeight="6" refX="8" refY="3" orient="auto" markerUnits="userSpaceOnUse" overflow="visible">
      <path d="M0,0 L8,3 L0,6 Z" fill="currentColor"/>
    </marker>
    <marker id="ar3l" markerWidth="8" markerHeight="6" refX="0" refY="3" orient="auto" markerUnits="userSpaceOnUse" overflow="visible">
      <path d="M8,0 L0,3 L8,6 Z" fill="currentColor"/>
    </marker>
      <marker id="arrow-6b7280" markerWidth="10" markerHeight="7" refX="9" refY="3.5" orient="auto" markerUnits="userSpaceOnUse" overflow="visible">
      <polygon points="0 0, 10 3.5, 0 7" fill="#6b7280"/>
    </marker>
  </defs>
  <style>
    text { font-family: sans-serif; font-size: 12px; fill: currentColor; dominant-baseline: middle; text-anchor: middle; }
    line { stroke: currentColor; stroke-width: 1.5; }
    rect { fill: transparent; stroke: currentColor; stroke-width: 1.5; rx: 4; }
  </style>

  <!-- Headers -->
  <text x="130" y="18" font-weight="bold" font-size="13px">Hog Silocal</text>
  <text x="630" y="18" font-weight="bold" font-size="13px">Target Silocal</text>

  <!-- Vertical lines -->
  <line x1="130" y1="28" x2="130" y2="370" marker-end="url(#arrow-6b7280)"/>
  <line x1="630" y1="28" x2="630" y2="370" marker-end="url(#arrow-6b7280)"/>

  <!-- Step 1: pause local compaction (horizontal across) -->
  <line x1="130" y1="46" x2="630" y2="46" marker-end="url(#arrow-6b7280)"/>
  <text x="380" y="42" font-size="11px">暂停本地 compaction</text>

  <!-- Step 2: export metadata rightward -->
  <line x1="130" y1="72" x2="630" y2="72" marker-end="url(#arrow-6b7280)"/>
  <text x="240" y="68" font-size="11px">导出 metadata</text>
  <text x="380" y="68" font-size="11px">(level, key_range, SST files)</text>
  <line x1="570" y1="68" x2="625" y2="68" marker-end="url(#ar3)"/>

  <!-- Step 3: receive metadata (target side) -->
  <text x="630" y="98" font-size="11px" text-anchor="end">接收 metadata</text>
  <!-- bullet indicator -->
  <circle cx="618" cy="98" r="3"/>
  <text x="630" y="118" font-size="11px" text-anchor="end">建立 gRPC streaming</text>
  <circle cx="618" cy="118" r="3"/>
  <text x="630" y="138" font-size="11px" text-anchor="end">远程读 SST data chunks</text>
  <circle cx="618" cy="138" r="3"/>
  <text x="630" y="158" font-size="11px" text-anchor="end">执行 merge-sort compaction</text>
  <circle cx="618" cy="158" r="3"/>
  <text x="630" y="178" font-size="11px" text-anchor="end">生成新 SST 文件</text>
  <circle cx="618" cy="178" r="3"/>

  <!-- Step 4: write back leftward -->
  <line x1="130" y1="204" x2="630" y2="204" marker-end="url(#arrow-6b7280)"/>
  <text x="380" y="200" font-size="11px">写回原节点 (grpc stream_write)</text>
  <line x1="130" y1="200" x2="190" y2="200" marker-end="url(#ar3l)"/>

  <!-- Step 5: hog side actions -->
  <line x1="130" y1="230" x2="630" y2="230" style="stroke:dashed" marker-end="url(#arrow-6b7280)"/>

  <text x="130" y="256" font-size="11px" text-anchor="end">更新 LSM 元数据</text>
  <circle cx="142" cy="256" r="3"/>
  <text x="130" y="278" font-size="11px" text-anchor="end">删除旧 SST 文件</text>
  <circle cx="142" cy="278" r="3"/>
  <text x="130" y="300" font-size="11px" text-anchor="end">恢复本地 compaction 调度</text>
  <circle cx="142" cy="300" r="3"/>
  <text x="130" y="322" font-size="11px" font-weight="bold" text-anchor="end">done</text>

  <!-- target done -->
  <text x="630" y="322" font-size="11px" font-weight="bold" text-anchor="end">done</text>
</svg>