<?xml version="1.0" encoding="UTF-8"?>
<svg viewBox="0 0 680 220" xmlns="http://www.w3.org/2000/svg">
  <defs>
    <marker id="a5" markerWidth="8" markerHeight="6" refX="8" refY="3" orient="auto"><path d="M0,0 L8,3 L0,6 Z" fill="currentColor"/></marker>
    <marker id="a5d" markerWidth="6" markerHeight="8" refX="3" refY="8" orient="auto"><path d="M0,0 L3,8 L6,0 Z" fill="currentColor"/></marker>
  </defs>
  <rect x="200" y="10" width="240" height="36" rx="6" fill="transparent" stroke="currentColor" stroke-width="2"/>
  <text x="320" y="30" font-family="sans-serif" font-size="13" fill="currentColor" text-anchor="middle" dominant-baseline="middle">TrueTime API ← GPS + Atomic Clocks</text>
  <line x1="320" y1="46" x2="320" y2="70" stroke="currentColor" stroke-width="2"/>
  <line x1="320" y1="70" x2="100" y2="70" stroke="currentColor" stroke-width="2"/>
  <line x1="320" y1="70" x2="540" y2="70" stroke="currentColor" stroke-width="2"/>
  <line x1="100" y1="70" x2="100" y2="90" stroke="currentColor" stroke-width="2" marker-end="url(#a5d)"/>
  <line x1="540" y1="70" x2="540" y2="90" stroke="currentColor" stroke-width="2" marker-end="url(#a5d)"/>
  <rect x="10" y="95" width="180" height="50" rx="6" fill="transparent" stroke="currentColor" stroke-width="2"/>
  <text x="100" y="115" font-family="sans-serif" font-size="13" fill="currentColor" text-anchor="middle" dominant-baseline="middle">Zone A (Paxos)</text>
  <text x="100" y="133" font-family="sans-serif" font-size="11" fill="currentColor" text-anchor="middle" dominant-baseline="middle">Spanserver...</text>
  <rect x="450" y="95" width="180" height="50" rx="6" fill="transparent" stroke="currentColor" stroke-width="2"/>
  <text x="540" y="115" font-family="sans-serif" font-size="13" fill="currentColor" text-anchor="middle" dominant-baseline="middle">Zone B (Paxos)</text>
  <text x="540" y="133" font-family="sans-serif" font-size="11" fill="currentColor" text-anchor="middle" dominant-baseline="middle">Spanserver...</text>
  <line x1="190" y1="130" x2="450" y2="130" stroke="currentColor" stroke-width="2" stroke-dasharray="6,3"/>
  <text x="320" y="125" font-family="sans-serif" font-size="12" fill="currentColor" text-anchor="middle" dominant-baseline="middle">2PC (跨 Paxos Group 事务)</text>
</svg>